<svg xmlns:ev="http://www.w3.org/2001/xml-events" width="4500" height="3185" xmlns:xlink="http://www.w3.org/1999/xlink" viewBox="0 0 4500 3185" xmlns="http://www.w3.org/2000/svg"><defs/><g transform="translate(5.5,5.5)" id="page1"><rect y="0" width="4490" height="3175" x="0" fill="#ffffff"/><g transform="translate(2686.04,267.00)" id="shape1"><path d="M100.0,63.0L100.0,7.0C100.0,3.1,96.9,.0,93.0,.0L7.0,.0C3.1,.0,.0,3.1,.0,7.0L.0,63.0C.0,66.9,3.1,70.0,7.0,70.0L93.0,70.0C96.9,70.0,100.0,66.9,100.0,63.0z" stroke-width="1" fill="#ffffff" fill-rule="nonzero" stroke="#323232"/><text xml:space="preserve" style="fill:#191919;font-family:Microsoft YaHei;font-size:10.00pt"><tspan y="23.0" x="22.9">program </tspan><tspan y="41.0" x="30.8">Parser</tspan><tspan y="59.0" x="17.4">elements[]</tspan></text></g><g transform="translate(2516.04,416.00)" id="shape2"><path d="M100.0,53.0L100.0,7.0C100.0,3.1,96.9,.0,93.0,.0L7.0,.0C3.1,.0,.0,3.1,.0,7.0L.0,53.0C.0,56.9,3.1,60.0,7.0,60.0L93.0,60.0C96.9,60.0,100.0,56.9,100.0,53.0z" stroke-width="1" fill="#ffffff" fill-rule="nonzero" stroke="#323232"/><text xml:space="preserve" style="fill:#191919;font-family:Microsoft YaHei;font-size:10.00pt"><tspan y="27.0" x="28.7">OrTree</tspan><tspan y="45.0" x="23.3">parsers[]</tspan></text></g><g transform="translate(2611.04,529.00)" id="shape3"><path d="M182.0,53.0L182.0,7.0C182.0,3.1,178.9,.0,175.0,.0L7.0,.0C3.1,.0,.0,3.1,.0,7.0L.0,53.0C.0,56.9,3.1,60.0,7.0,60.0L175.0,60.0C178.9,60.0,182.0,56.9,182.0,53.0z" stroke-width="1" fill="#ffffff" fill-rule="nonzero" stroke="#323232"/><text xml:space="preserve" style="fill:#191919;font-family:Microsoft YaHei;font-size:10.00pt"><tspan y="36.0" x="19.9">Parser(NullStmnt.class)</tspan></text></g><g transform="translate(2384.04,524.00)" id="shape4"><path d="M100.0,63.0L100.0,7.0C100.0,3.1,96.9,.0,93.0,.0L7.0,.0C3.1,.0,.0,3.1,.0,7.0L.0,63.0C.0,66.9,3.1,70.0,7.0,70.0L93.0,70.0C96.9,70.0,100.0,66.9,100.0,63.0z" stroke-width="1" fill="#ffffff" fill-rule="nonzero" stroke="#323232"/><text xml:space="preserve" style="fill:#191919;font-family:Microsoft YaHei;font-size:10.00pt"><tspan y="23.0" x="18.7">statement </tspan><tspan y="41.0" x="30.8">Parser</tspan><tspan y="59.0" x="17.4">elements[]</tspan></text></g><g transform="translate(2894.04,416.00)" id="shape5"><path d="M100.0,53.0L100.0,7.0C100.0,3.1,96.9,.0,93.0,.0L7.0,.0C3.1,.0,.0,3.1,.0,7.0L.0,53.0C.0,56.9,3.1,60.0,7.0,60.0L93.0,60.0C96.9,60.0,100.0,56.9,100.0,53.0z" stroke-width="1" fill="#ffffff" fill-rule="nonzero" stroke="#323232"/><text xml:space="preserve" style="fill:#191919;font-family:Microsoft YaHei;font-size:10.00pt"><tspan y="27.0" x="36.8">Skip</tspan><tspan y="45.0" x="29.2">tokens</tspan></text></g><g transform="translate(2736.04,337.00)" id="shape6"><path d="M.0,.0L.0,51.0L-170.0,51.0L-170.0,73.0" stroke-width="1" fill="none" stroke="#191919"/><path d="M-167.0,73.0L-170.0,79.0L-173.0,73.0L-167.0,73.0" stroke-width="1" fill="#191919" stroke-linecap="round" stroke="#191919"/></g><g transform="translate(2736.04,337.00)" id="shape7"><path d="M.0,.0L.0,51.0L208.0,51.0L208.0,73.0" stroke-width="1" fill="none" stroke="#191919"/><path d="M211.0,73.0L208.0,79.0L205.0,73.0L211.0,73.0" stroke-width="1" fill="#191919" stroke-linecap="round" stroke="#191919"/></g><g transform="translate(2566.04,476.00)" id="shape8"><path d="M.0,.0L.0,28.0L-132.0,28.0L-132.0,42.0" stroke-width="1" fill="none" stroke="#191919"/><path d="M-129.0,42.0L-132.0,48.0L-135.0,42.0L-129.0,42.0" stroke-width="1" fill="#191919" stroke-linecap="round" stroke="#191919"/></g><g transform="translate(2566.04,476.00)" id="shape9"><path d="M.0,.0L.0,28.0L136.0,28.0L136.0,47.0" stroke-width="1" fill="none" stroke="#191919"/><path d="M139.0,47.0L136.0,53.0L133.0,47.0L139.0,47.0" stroke-width="1" fill="#191919" stroke-linecap="round" stroke="#191919"/></g><g transform="translate(2384.04,643.00)" id="shape10"><path d="M100.0,53.0L100.0,7.0C100.0,3.1,96.9,.0,93.0,.0L7.0,.0C3.1,.0,.0,3.1,.0,7.0L.0,53.0C.0,56.9,3.1,60.0,7.0,60.0L93.0,60.0C96.9,60.0,100.0,56.9,100.0,53.0z" stroke-width="1" fill="#ffffff" fill-rule="nonzero" stroke="#323232"/><text xml:space="preserve" style="fill:#191919;font-family:Microsoft YaHei;font-size:10.00pt"><tspan y="27.0" x="28.7">OrTree</tspan><tspan y="45.0" x="23.3">parsers[]</tspan></text></g><g transform="translate(2434.04,594.00)" id="shape11"><path d="M.0,.0L.0,43.0" stroke-width="1" fill="none" stroke="#191919"/><path d="M3.0,43.0L.0,49.0L-3.0,43.0L3.0,43.0" stroke-width="1" fill="#191919" stroke-linecap="round" stroke="#191919"/></g><g transform="translate(1557.23,757.00)" id="shape12"><path d="M164.5,63.0L164.5,7.0C164.5,3.1,161.4,.0,157.5,.0L7.0,.0C3.1,.0,.0,3.1,.0,7.0L.0,63.0C.0,66.9,3.1,70.0,7.0,70.0L157.5,70.0C161.4,70.0,164.5,66.9,164.5,63.0z" stroke-width="1" fill="#ffffff" fill-rule="nonzero" stroke="#323232"/><text xml:space="preserve" style="fill:#191919;font-family:Microsoft YaHei;font-size:10.00pt"><tspan y="32.0" x="19.7">Parser(IfStmnt.class)</tspan><tspan y="50.0" x="49.6">elements[]</tspan></text></g><g transform="translate(2828.52,757.00)" id="shape13"><path d="M173.5,63.0L173.5,7.0C173.5,3.1,170.4,.0,166.5,.0L7.0,.0C3.1,.0,.0,3.1,.0,7.0L.0,63.0C.0,66.9,3.1,70.0,7.0,70.0L166.5,70.0C170.4,70.0,173.5,66.9,173.5,63.0z" stroke-width="1" fill="#ffffff" fill-rule="nonzero" stroke="#323232"/><text xml:space="preserve" style="fill:#191919;font-family:Microsoft YaHei;font-size:10.00pt"><tspan y="32.0" x="10.7">Parser(WhileStmnt.class)</tspan><tspan y="50.0" x="54.1">elements[]</tspan></text></g><g transform="translate(3383.00,757.00)" id="shape14"><path d="M217.0,63.0L217.0,7.0C217.0,3.1,213.9,.0,210.0,.0L7.0,.0C3.1,.0,.0,3.1,.0,7.0L.0,63.0C.0,66.9,3.1,70.0,7.0,70.0L210.0,70.0C213.9,70.0,217.0,66.9,217.0,63.0z" stroke-width="1" fill="#ffffff" fill-rule="nonzero" stroke="#323232"/><text xml:space="preserve" style="fill:#191919;font-family:Microsoft YaHei;font-size:10.00pt"><tspan y="23.0" x="88.1">simple</tspan><tspan y="41.0" x="31.6">Parser(PrimaryExpr.class)</tspan><tspan y="59.0" x="75.9">elements[]</tspan></text></g><g transform="translate(824.00,942.50)" id="shape15"><path d="M164.5,63.0L164.5,7.0C164.5,3.1,161.4,.0,157.5,.0L7.0,.0C3.1,.0,.0,3.1,.0,7.0L.0,63.0C.0,66.9,3.1,70.0,7.0,70.0L157.5,70.0C161.4,70.0,164.5,66.9,164.5,63.0z" stroke-width="1" fill="#ffffff" fill-rule="nonzero" stroke="#323232"/><text xml:space="preserve" style="fill:#191919;font-family:Microsoft YaHei;font-size:10.00pt"><tspan y="32.0" x="69.1">Skip</tspan><tspan y="50.0" x="61.5">tokens</tspan></text></g><g transform="translate(1039.00,942.50)" id="shape16"><path d="M164.5,63.0L164.5,7.0C164.5,3.1,161.4,.0,157.5,.0L7.0,.0C3.1,.0,.0,3.1,.0,7.0L.0,63.0C.0,66.9,3.1,70.0,7.0,70.0L157.5,70.0C161.4,70.0,164.5,66.9,164.5,63.0z" stroke-width="1" fill="#ffffff" fill-rule="nonzero" stroke="#323232"/><text xml:space="preserve" style="fill:#191919;font-family:Microsoft YaHei;font-size:10.00pt"><tspan y="32.0" x="68.7">Tree</tspan><tspan y="50.0" x="62.9">parser</tspan></text></g><g transform="translate(1070.01,1074.50)" id="shape17"><path d="M100.0,63.0L100.0,7.0C100.0,3.1,96.9,.0,93.0,.0L7.0,.0C3.1,.0,.0,3.1,.0,7.0L.0,63.0C.0,66.9,3.1,70.0,7.0,70.0L93.0,70.0C96.9,70.0,100.0,66.9,100.0,63.0z" stroke-width="1" fill="#ffffff" fill-rule="nonzero" stroke="#323232"/><text xml:space="preserve" style="fill:#191919;font-family:Microsoft YaHei;font-size:10.00pt"><tspan y="23.0" x="36.4">expr</tspan><tspan y="41.0" x="30.8">Parser</tspan><tspan y="59.0" x="17.4">elements[]</tspan></text></g><g transform="translate(2434.04,703.00)" id="shape18"><path d="M.0,.0L.0,28.0L-387.8,28.0C-387.8,24.7,-390.5,22.0,-393.8,22.0C-397.1,22.0,-399.8,24.7,-399.8,28.0L-795.0,28.0L-795.0,48.0" stroke-width="1" fill="none" stroke="#191919"/><path d="M-792.0,48.0L-795.0,54.0L-798.0,48.0L-792.0,48.0" stroke-width="1" fill="#191919" stroke-linecap="round" stroke="#191919"/></g><g transform="translate(1639.49,827.00)" id="shape19"><path d="M.0,.0L.0,87.0L-733.0,87.0L-733.0,109.0" stroke-width="1" fill="none" stroke="#191919"/><path d="M-730.0,109.0L-733.0,115.0L-736.0,109.0L-730.0,109.0" stroke-width="1" fill="#191919" stroke-linecap="round" stroke="#191919"/></g><g transform="translate(1639.49,827.00)" id="shape20"><path d="M.0,.0L.0,87.0L-518.0,87.0L-518.0,109.0" stroke-width="1" fill="none" stroke="#191919"/><path d="M-515.0,109.0L-518.0,115.0L-521.0,109.0L-515.0,109.0" stroke-width="1" fill="#191919" stroke-linecap="round" stroke="#191919"/></g><g transform="translate(2434.04,703.00)" id="shape21"><path d="M.0,.0L.0,28.0L480.0,28.0L480.0,48.0" stroke-width="1" fill="none" stroke="#191919"/><path d="M483.0,48.0L480.0,54.0L477.0,48.0L483.0,48.0" stroke-width="1" fill="#191919" stroke-linecap="round" stroke="#191919"/></g><g transform="translate(2434.04,703.00)" id="shape22"><path d="M.0,.0L.0,28.0L1057.0,28.0L1057.0,48.0" stroke-width="1" fill="none" stroke="#191919"/><path d="M1060.0,48.0L1057.0,54.0L1054.0,48.0L1060.0,48.0" stroke-width="1" fill="#191919" stroke-linecap="round" stroke="#191919"/></g><g transform="translate(1558.75,942.50)" id="shape23"><path d="M164.5,63.0L164.5,7.0C164.5,3.1,161.4,.0,157.5,.0L7.0,.0C3.1,.0,.0,3.1,.0,7.0L.0,63.0C.0,66.9,3.1,70.0,7.0,70.0L157.5,70.0C161.4,70.0,164.5,66.9,164.5,63.0z" stroke-width="1" fill="#ffffff" fill-rule="nonzero" stroke="#323232"/><text xml:space="preserve" style="fill:#191919;font-family:Microsoft YaHei;font-size:10.00pt"><tspan y="32.0" x="68.7">Tree</tspan><tspan y="50.0" x="62.9">parser</tspan></text></g><g transform="translate(1558.23,1100.75)" id="shape24"><path d="M164.5,81.0L164.5,7.0C164.5,3.1,161.4,.0,157.5,.0L7.0,.0C3.1,.0,.0,3.1,.0,7.0L.0,81.0C.0,84.9,3.1,88.0,7.0,88.0L157.5,88.0C161.4,88.0,164.5,84.9,164.5,81.0z" stroke-width="1" fill="#ffffff" fill-rule="nonzero" stroke="#323232"/><text xml:space="preserve" style="fill:#191919;font-family:Microsoft YaHei;font-size:10.00pt"><tspan y="32.0" x="65.5">block</tspan><tspan y="50.0" x="7.2">Parser(BlockStmnt.class)</tspan><tspan y="68.0" x="49.6">elements[]</tspan></text></g><g transform="translate(2181.03,942.75)" id="shape25"><path d="M164.5,63.0L164.5,7.0C164.5,3.1,161.4,.0,157.5,.0L7.0,.0C3.1,.0,.0,3.1,.0,7.0L.0,63.0C.0,66.9,3.1,70.0,7.0,70.0L157.5,70.0C161.4,70.0,164.5,66.9,164.5,63.0z" stroke-width="1" fill="#ffffff" fill-rule="nonzero" stroke="#323232"/><text xml:space="preserve" style="fill:#191919;font-family:Microsoft YaHei;font-size:10.00pt"><tspan y="32.0" x="60.5">Repeat</tspan><tspan y="50.0" x="62.9">parser</tspan></text></g><g transform="translate(2212.04,1176.75)" id="shape26"><path d="M100.0,63.0L100.0,7.0C100.0,3.1,96.9,.0,93.0,.0L7.0,.0C3.1,.0,.0,3.1,.0,7.0L.0,63.0C.0,66.9,3.1,70.0,7.0,70.0L93.0,70.0C96.9,70.0,100.0,66.9,100.0,63.0z" stroke-width="1" fill="#ffffff" fill-rule="nonzero" stroke="#323232"/><text xml:space="preserve" style="fill:#191919;font-family:Microsoft YaHei;font-size:10.00pt"><tspan y="32.0" x="30.8">Parser</tspan><tspan y="50.0" x="17.4">elements[]</tspan></text></g><g transform="translate(855.01,1074.50)" id="shape27"><path d="M100.0,63.0L100.0,7.0C100.0,3.1,96.9,.0,93.0,.0L7.0,.0C3.1,.0,.0,3.1,.0,7.0L.0,63.0C.0,66.9,3.1,70.0,7.0,70.0L93.0,70.0C96.9,70.0,100.0,66.9,100.0,63.0z" stroke-width="1" fill="#ffffff" fill-rule="nonzero" stroke="#323232"/><text xml:space="preserve" style="fill:#191919;font-family:Microsoft YaHei;font-size:10.00pt"><tspan y="41.0" x="33.0">“if”</tspan></text></g><g transform="translate(1037.27,1228.00)" id="shape28"><path d="M164.5,63.0L164.5,7.0C164.5,3.1,161.4,.0,157.5,.0L7.0,.0C3.1,.0,.0,3.1,.0,7.0L.0,63.0C.0,66.9,3.1,70.0,7.0,70.0L157.5,70.0C161.4,70.0,164.5,66.9,164.5,63.0z" stroke-width="1" fill="#ffffff" fill-rule="nonzero" stroke="#323232"/><text xml:space="preserve" style="fill:#191919;font-family:Microsoft YaHei;font-size:10.00pt"><tspan y="32.0" x="68.8">Expr</tspan><tspan y="50.0" x="30.9">parser operators</tspan></text></g><g transform="translate(906.26,1012.50)" id="shape29"><path d="M.0,.0L.0,56.0" stroke-width="1" fill="none" stroke="#191919"/><path d="M3.0,56.0L.0,62.0L-3.0,56.0L3.0,56.0" stroke-width="1" fill="#191919" stroke-linecap="round" stroke="#191919"/></g><g transform="translate(1639.49,827.00)" id="shape30"><path d="M.0,.0L.0,87.0L2.0,87.0L2.0,109.0" stroke-width="1" fill="none" stroke="#191919"/><path d="M5.0,109.0L2.0,115.0L-1.0,109.0L5.0,109.0" stroke-width="1" fill="#191919" stroke-linecap="round" stroke="#191919"/></g><g transform="translate(1639.49,827.00)" id="shape31"><path d="M.0,.0L.0,87.0L394.8,87.0C394.8,83.7,397.5,81.0,400.8,81.0C404.1,81.0,406.8,83.7,406.8,87.0L624.0,87.0L624.0,109.0" stroke-width="1" fill="none" stroke="#191919"/><path d="M627.0,109.0L624.0,115.0L621.0,109.0L627.0,109.0" stroke-width="1" fill="#191919" stroke-linecap="round" stroke="#191919"/></g><g transform="translate(1121.26,1012.50)" id="shape32"><path d="M.0,.0L.0,56.0" stroke-width="1" fill="none" stroke="#191919"/><path d="M3.0,56.0L.0,62.0L-3.0,56.0L3.0,56.0" stroke-width="1" fill="#191919" stroke-linecap="round" stroke="#191919"/></g><g transform="translate(1641.01,1012.50)" id="shape33"><path d="M.0,.0L.0,82.0" stroke-width="1" fill="none" stroke="#191919"/><path d="M3.0,82.0L.0,88.0L-3.0,82.0L3.0,82.0" stroke-width="1" fill="#191919" stroke-linecap="round" stroke="#191919"/></g><g transform="translate(2263.29,1012.75)" id="shape34"><path d="M.0,.0L.0,158.0" stroke-width="1" fill="none" stroke="#191919"/><path d="M3.0,158.0L.0,164.0L-3.0,158.0L3.0,158.0" stroke-width="1" fill="#191919" stroke-linecap="round" stroke="#191919"/></g><g transform="translate(1120.01,1144.50)" id="shape35"><path d="M.0,.0L.0,78.0" stroke-width="1" fill="none" stroke="#191919"/><path d="M3.0,78.0L.0,84.0L-3.0,78.0L3.0,78.0" stroke-width="1" fill="#191919" stroke-linecap="round" stroke="#191919"/></g><g transform="translate(1068.53,1355.00)" id="shape36"><path d="M100.0,63.0L100.0,7.0C100.0,3.1,96.9,.0,93.0,.0L7.0,.0C3.1,.0,.0,3.1,.0,7.0L.0,63.0C.0,66.9,3.1,70.0,7.0,70.0L93.0,70.0C96.9,70.0,100.0,66.9,100.0,63.0z" stroke-width="1" fill="#ffffff" fill-rule="nonzero" stroke="#323232"/><text xml:space="preserve" style="fill:#191919;font-family:Microsoft YaHei;font-size:10.00pt"><tspan y="23.0" x="31.9">factor</tspan><tspan y="41.0" x="30.8">Parser</tspan><tspan y="59.0" x="17.4">elements[]</tspan></text></g><g transform="translate(761.02,1747.50)" id="shape37"><path d="M164.5,63.0L164.5,7.0C164.5,3.1,161.4,.0,157.5,.0L7.0,.0C3.1,.0,.0,3.1,.0,7.0L.0,63.0C.0,66.9,3.1,70.0,7.0,70.0L157.5,70.0C161.4,70.0,164.5,66.9,164.5,63.0z" stroke-width="1" fill="#ffffff" fill-rule="nonzero" stroke="#323232"/><text xml:space="preserve" style="fill:#191919;font-family:Microsoft YaHei;font-size:10.00pt"><tspan y="32.0" x="69.1">Skip</tspan><tspan y="50.0" x="61.5">tokens</tspan></text></g><g transform="translate(793.03,1879.50)" id="shape38"><path d="M100.0,63.0L100.0,7.0C100.0,3.1,96.9,.0,93.0,.0L7.0,.0C3.1,.0,.0,3.1,.0,7.0L.0,63.0C.0,66.9,3.1,70.0,7.0,70.0L93.0,70.0C96.9,70.0,100.0,66.9,100.0,63.0z" stroke-width="1" fill="#ffffff" fill-rule="nonzero" stroke="#323232"/><text xml:space="preserve" style="fill:#191919;font-family:Microsoft YaHei;font-size:10.00pt"><tspan y="41.0" x="34.2">“-”</tspan></text></g><g transform="translate(843.28,1817.50)" id="shape39"><path d="M.0,.0L.0,56.0" stroke-width="1" fill="none" stroke="#191919"/><path d="M3.0,56.0L.0,62.0L-3.0,56.0L3.0,56.0" stroke-width="1" fill="#191919" stroke-linecap="round" stroke="#191919"/></g><g transform="translate(1068.53,1479.00)" id="shape40"><path d="M100.0,53.0L100.0,7.0C100.0,3.1,96.9,.0,93.0,.0L7.0,.0C3.1,.0,.0,3.1,.0,7.0L.0,53.0C.0,56.9,3.1,60.0,7.0,60.0L93.0,60.0C96.9,60.0,100.0,56.9,100.0,53.0z" stroke-width="1" fill="#ffffff" fill-rule="nonzero" stroke="#323232"/><text xml:space="preserve" style="fill:#191919;font-family:Microsoft YaHei;font-size:10.00pt"><tspan y="27.0" x="28.7">OrTree</tspan><tspan y="45.0" x="23.3">parsers[]</tspan></text></g><g transform="translate(865.02,1627.50)" id="shape41"><path d="M194.0,63.0L194.0,7.0C194.0,3.1,190.9,.0,187.0,.0L7.0,.0C3.1,.0,.0,3.1,.0,7.0L.0,63.0C.0,66.9,3.1,70.0,7.0,70.0L187.0,70.0C190.9,70.0,194.0,66.9,194.0,63.0z" stroke-width="1" fill="#ffffff" fill-rule="nonzero" stroke="#323232"/><text xml:space="preserve" style="fill:#191919;font-family:Microsoft YaHei;font-size:10.00pt"><tspan y="32.0" x="15.9">Parser(NegativeExpr.class)</tspan><tspan y="50.0" x="64.4">elements[]</tspan></text></g><g transform="translate(1119.53,1298.00)" id="shape42"><path d="M.0,.0L.0,51.0" stroke-width="1" fill="none" stroke="#191919"/><path d="M3.0,51.0L.0,57.0L-3.0,51.0L3.0,51.0" stroke-width="1" fill="#191919" stroke-linecap="round" stroke="#191919"/></g><g transform="translate(1118.53,1425.00)" id="shape43"><path d="M.0,.0L.0,48.0" stroke-width="1" fill="none" stroke="#191919"/><path d="M3.0,48.0L.0,54.0L-3.0,48.0L3.0,48.0" stroke-width="1" fill="#191919" stroke-linecap="round" stroke="#191919"/></g><g transform="translate(1118.53,1539.00)" id="shape44"><path d="M.0,.0L.0,60.0L-156.0,60.0L-156.0,82.0" stroke-width="1" fill="none" stroke="#191919"/><path d="M-153.0,82.0L-156.0,88.0L-159.0,82.0L-153.0,82.0" stroke-width="1" fill="#191919" stroke-linecap="round" stroke="#191919"/></g><g transform="translate(962.02,1697.50)" id="shape45"><path d="M.0,.0L.0,28.0L-119.0,28.0L-119.0,44.0" stroke-width="1" fill="none" stroke="#191919"/><path d="M-116.0,44.0L-119.0,50.0L-122.0,44.0L-116.0,44.0" stroke-width="1" fill="#191919" stroke-linecap="round" stroke="#191919"/></g><g transform="translate(968.28,1870.50)" id="shape46"><path d="M181.2,81.0L181.2,7.0C181.2,3.1,178.1,.0,174.2,.0L7.0,.0C3.1,.0,.0,3.1,.0,7.0L.0,81.0C.0,84.9,3.1,88.0,7.0,88.0L174.2,88.0C178.1,88.0,181.2,84.9,181.2,81.0z" stroke-width="1" fill="#ffffff" fill-rule="nonzero" stroke="#323232"/><text xml:space="preserve" style="fill:#191919;font-family:Microsoft YaHei;font-size:10.00pt"><tspan y="32.0" x="66.7">primary</tspan><tspan y="50.0" x="13.7">Parser(PrimaryExpr.class)</tspan><tspan y="68.0" x="58.0">elements[]</tspan></text></g><g transform="translate(976.02,1747.50)" id="shape47"><path d="M164.5,63.0L164.5,7.0C164.5,3.1,161.4,.0,157.5,.0L7.0,.0C3.1,.0,.0,3.1,.0,7.0L.0,63.0C.0,66.9,3.1,70.0,7.0,70.0L157.5,70.0C161.4,70.0,164.5,66.9,164.5,63.0z" stroke-width="1" fill="#ffffff" fill-rule="nonzero" stroke="#323232"/><text xml:space="preserve" style="fill:#191919;font-family:Microsoft YaHei;font-size:10.00pt"><tspan y="32.0" x="68.7">Tree</tspan><tspan y="50.0" x="62.9">parser</tspan></text></g><g transform="translate(1058.28,1817.50)" id="shape48"><path d="M.0,.0L.0,47.0" stroke-width="1" fill="none" stroke="#191919"/><path d="M3.0,47.0L.0,53.0L-3.0,47.0L3.0,47.0" stroke-width="1" fill="#191919" stroke-linecap="round" stroke="#191919"/></g><g transform="translate(962.02,1697.50)" id="shape49"><path d="M.0,.0L.0,28.0L96.0,28.0L96.0,44.0" stroke-width="1" fill="none" stroke="#191919"/><path d="M99.0,44.0L96.0,50.0L93.0,44.0L99.0,44.0" stroke-width="1" fill="#191919" stroke-linecap="round" stroke="#191919"/></g><g transform="translate(1216.02,1627.50)" id="shape50"><path d="M100.0,63.0L100.0,7.0C100.0,3.1,96.9,.0,93.0,.0L7.0,.0C3.1,.0,.0,3.1,.0,7.0L.0,63.0C.0,66.9,3.1,70.0,7.0,70.0L93.0,70.0C96.9,70.0,100.0,66.9,100.0,63.0z" stroke-width="1" fill="#ffffff" fill-rule="nonzero" stroke="#323232"/><text xml:space="preserve" style="fill:#191919;font-family:Microsoft YaHei;font-size:10.00pt"><tspan y="23.0" x="26.1">primary</tspan><tspan y="41.0" x="30.8">Parser</tspan><tspan y="59.0" x="17.4">elements[]</tspan></text></g><g transform="translate(1118.53,1539.00)" id="shape51"><path d="M.0,.0L.0,60.0L148.0,60.0L148.0,82.0" stroke-width="1" fill="none" stroke="#191919"/><path d="M151.0,82.0L148.0,88.0L145.0,82.0L151.0,82.0" stroke-width="1" fill="#191919" stroke-linecap="round" stroke="#191919"/></g><g transform="translate(2836.52,524.00)" id="shape52"><path d="M100.0,63.0L100.0,7.0C100.0,3.1,96.9,.0,93.0,.0L7.0,.0C3.1,.0,.0,3.1,.0,7.0L.0,63.0C.0,66.9,3.1,70.0,7.0,70.0L93.0,70.0C96.9,70.0,100.0,66.9,100.0,63.0z" stroke-width="1" fill="#ffffff" fill-rule="nonzero" stroke="#323232"/><text xml:space="preserve" style="fill:#191919;font-family:Microsoft YaHei;font-size:10.00pt"><tspan y="41.0" x="35.4">“;”</tspan></text></g><g transform="translate(2987.52,524.00)" id="shape53"><path d="M100.0,63.0L100.0,7.0C100.0,3.1,96.9,.0,93.0,.0L7.0,.0C3.1,.0,.0,3.1,.0,7.0L.0,63.0C.0,66.9,3.1,70.0,7.0,70.0L93.0,70.0C96.9,70.0,100.0,66.9,100.0,63.0z" stroke-width="1" fill="#ffffff" fill-rule="nonzero" stroke="#323232"/><text xml:space="preserve" style="fill:#191919;font-family:Microsoft YaHei;font-size:10.00pt"><tspan y="41.0" x="24.8">“EOL”</tspan></text></g><g transform="translate(2944.04,476.00)" id="shape54"><path d="M.0,.0L.0,28.0L-57.0,28.0L-57.0,42.0" stroke-width="1" fill="none" stroke="#191919"/><path d="M-54.0,42.0L-57.0,48.0L-60.0,42.0L-54.0,42.0" stroke-width="1" fill="#191919" stroke-linecap="round" stroke="#191919"/></g><g transform="translate(2944.04,476.00)" id="shape55"><path d="M.0,.0L.0,28.0L94.0,28.0L94.0,42.0" stroke-width="1" fill="none" stroke="#191919"/><path d="M97.0,42.0L94.0,48.0L91.0,42.0L97.0,42.0" stroke-width="1" fill="#191919" stroke-linecap="round" stroke="#191919"/></g><g transform="translate(2147.52,1293.25)" id="shape56"><path d="M164.5,63.0L164.5,7.0C164.5,3.1,161.4,.0,157.5,.0L7.0,.0C3.1,.0,.0,3.1,.0,7.0L.0,63.0C.0,66.9,3.1,70.0,7.0,70.0L157.5,70.0C161.4,70.0,164.5,66.9,164.5,63.0z" stroke-width="1" fill="#ffffff" fill-rule="nonzero" stroke="#323232"/><text xml:space="preserve" style="fill:#191919;font-family:Microsoft YaHei;font-size:10.00pt"><tspan y="32.0" x="69.1">Skip</tspan><tspan y="50.0" x="61.5">tokens</tspan></text></g><g transform="translate(2179.53,1425.25)" id="shape57"><path d="M100.0,63.0L100.0,7.0C100.0,3.1,96.9,.0,93.0,.0L7.0,.0C3.1,.0,.0,3.1,.0,7.0L.0,63.0C.0,66.9,3.1,70.0,7.0,70.0L93.0,70.0C96.9,70.0,100.0,66.9,100.0,63.0z" stroke-width="1" fill="#ffffff" fill-rule="nonzero" stroke="#323232"/><text xml:space="preserve" style="fill:#191919;font-family:Microsoft YaHei;font-size:10.00pt"><tspan y="41.0" x="24.9">“else”</tspan></text></g><g transform="translate(2229.78,1363.25)" id="shape58"><path d="M.0,.0L.0,56.0" stroke-width="1" fill="none" stroke="#191919"/><path d="M3.0,56.0L.0,62.0L-3.0,56.0L3.0,56.0" stroke-width="1" fill="#191919" stroke-linecap="round" stroke="#191919"/></g><g transform="translate(2262.04,1246.75)" id="shape59"><path d="M.0,.0L.0,28.0L-33.0,28.0L-33.0,41.0" stroke-width="1" fill="none" stroke="#191919"/><path d="M-30.0,41.0L-33.0,47.0L-36.0,41.0L-30.0,41.0" stroke-width="1" fill="#191919" stroke-linecap="round" stroke="#191919"/></g><g transform="translate(2390.81,1425.25)" id="shape60"><path d="M100.0,63.0L100.0,7.0C100.0,3.1,96.9,.0,93.0,.0L7.0,.0C3.1,.0,.0,3.1,.0,7.0L.0,63.0C.0,66.9,3.1,70.0,7.0,70.0L93.0,70.0C96.9,70.0,100.0,66.9,100.0,63.0z" stroke-width="1" fill="#ffffff" fill-rule="nonzero" stroke="#323232"/><text xml:space="preserve" style="fill:#191919;font-family:Microsoft YaHei;font-size:10.00pt"><tspan y="23.0" x="33.2">block</tspan><tspan y="41.0" x="30.8">Parser</tspan><tspan y="59.0" x="17.4">elements[]</tspan></text></g><g transform="translate(2358.55,1293.25)" id="shape61"><path d="M164.5,63.0L164.5,7.0C164.5,3.1,161.4,.0,157.5,.0L7.0,.0C3.1,.0,.0,3.1,.0,7.0L.0,63.0C.0,66.9,3.1,70.0,7.0,70.0L157.5,70.0C161.4,70.0,164.5,66.9,164.5,63.0z" stroke-width="1" fill="#ffffff" fill-rule="nonzero" stroke="#323232"/><text xml:space="preserve" style="fill:#191919;font-family:Microsoft YaHei;font-size:10.00pt"><tspan y="32.0" x="68.7">Tree</tspan><tspan y="50.0" x="62.9">parser</tspan></text></g><g transform="translate(2262.04,1246.75)" id="shape62"><path d="M.0,.0L.0,28.0L178.0,28.0L178.0,41.0" stroke-width="1" fill="none" stroke="#191919"/><path d="M181.0,41.0L178.0,47.0L175.0,41.0L181.0,41.0" stroke-width="1" fill="#191919" stroke-linecap="round" stroke="#191919"/></g><g transform="translate(2440.81,1363.25)" id="shape63"><path d="M.0,.0L.0,56.0" stroke-width="1" fill="none" stroke="#191919"/><path d="M3.0,56.0L.0,62.0L-3.0,56.0L3.0,56.0" stroke-width="1" fill="#191919" stroke-linecap="round" stroke="#191919"/></g><g transform="translate(1008.28,2011.50)" id="shape64"><path d="M100.0,53.0L100.0,7.0C100.0,3.1,96.9,.0,93.0,.0L7.0,.0C3.1,.0,.0,3.1,.0,7.0L.0,53.0C.0,56.9,3.1,60.0,7.0,60.0L93.0,60.0C96.9,60.0,100.0,56.9,100.0,53.0z" stroke-width="1" fill="#ffffff" fill-rule="nonzero" stroke="#323232"/><text xml:space="preserve" style="fill:#191919;font-family:Microsoft YaHei;font-size:10.00pt"><tspan y="27.0" x="28.7">OrTree</tspan><tspan y="45.0" x="23.3">parsers[]</tspan></text></g><g transform="translate(1058.90,1958.50)" id="shape65"><path d="M.0,.0L.0,47.0" stroke-width="1" fill="none" stroke="#191919"/><path d="M3.0,47.0L.0,53.0L-3.0,47.0L3.0,47.0" stroke-width="1" fill="#191919" stroke-linecap="round" stroke="#191919"/></g><g transform="translate(502.00,2134.00)" id="shape66"><path d="M100.0,63.0L100.0,7.0C100.0,3.1,96.9,.0,93.0,.0L7.0,.0C3.1,.0,.0,3.1,.0,7.0L.0,63.0C.0,66.9,3.1,70.0,7.0,70.0L93.0,70.0C96.9,70.0,100.0,66.9,100.0,63.0z" stroke-width="1" fill="#ffffff" fill-rule="nonzero" stroke="#323232"/><text xml:space="preserve" style="fill:#191919;font-family:Microsoft YaHei;font-size:10.00pt"><tspan y="32.0" x="30.8">Parser</tspan><tspan y="50.0" x="17.4">elements[]</tspan></text></g><g transform="translate(949.40,2135.00)" id="shape67"><path d="M100.0,63.0L100.0,7.0C100.0,3.1,96.9,.0,93.0,.0L7.0,.0C3.1,.0,.0,3.1,.0,7.0L.0,63.0C.0,66.9,3.1,70.0,7.0,70.0L93.0,70.0C96.9,70.0,100.0,66.9,100.0,63.0z" stroke-width="1" fill="#ffffff" fill-rule="nonzero" stroke="#323232"/><text xml:space="preserve" style="fill:#191919;font-family:Microsoft YaHei;font-size:10.00pt"><tspan y="32.0" x="30.8">Parser</tspan><tspan y="50.0" x="17.4">elements[]</tspan></text></g><g transform="translate(1163.00,2134.00)" id="shape68"><path d="M100.0,63.0L100.0,7.0C100.0,3.1,96.9,.0,93.0,.0L7.0,.0C3.1,.0,.0,3.1,.0,7.0L.0,63.0C.0,66.9,3.1,70.0,7.0,70.0L93.0,70.0C96.9,70.0,100.0,66.9,100.0,63.0z" stroke-width="1" fill="#ffffff" fill-rule="nonzero" stroke="#323232"/><text xml:space="preserve" style="fill:#191919;font-family:Microsoft YaHei;font-size:10.00pt"><tspan y="32.0" x="30.8">Parser</tspan><tspan y="50.0" x="17.4">elements[]</tspan></text></g><g transform="translate(1376.60,2134.00)" id="shape69"><path d="M100.0,63.0L100.0,7.0C100.0,3.1,96.9,.0,93.0,.0L7.0,.0C3.1,.0,.0,3.1,.0,7.0L.0,63.0C.0,66.9,3.1,70.0,7.0,70.0L93.0,70.0C96.9,70.0,100.0,66.9,100.0,63.0z" stroke-width="1" fill="#ffffff" fill-rule="nonzero" stroke="#323232"/><text xml:space="preserve" style="fill:#191919;font-family:Microsoft YaHei;font-size:10.00pt"><tspan y="32.0" x="30.8">Parser</tspan><tspan y="50.0" x="17.4">elements[]</tspan></text></g><g transform="translate(1058.28,2071.50)" id="shape70"><path d="M.0,.0L.0,35.0L-506.0,35.0L-506.0,57.0" stroke-width="1" fill="none" stroke="#191919"/><path d="M-503.0,57.0L-506.0,63.0L-509.0,57.0L-503.0,57.0" stroke-width="1" fill="#191919" stroke-linecap="round" stroke="#191919"/></g><g transform="translate(1058.28,2071.50)" id="shape71"><path d="M.0,.0L.0,35.0L-59.0,35.0L-59.0,58.0" stroke-width="1" fill="none" stroke="#191919"/><path d="M-56.0,58.0L-59.0,64.0L-62.0,58.0L-56.0,58.0" stroke-width="1" fill="#191919" stroke-linecap="round" stroke="#191919"/></g><g transform="translate(1058.28,2071.50)" id="shape72"><path d="M.0,.0L.0,35.0L155.0,35.0L155.0,57.0" stroke-width="1" fill="none" stroke="#191919"/><path d="M158.0,57.0L155.0,63.0L152.0,57.0L158.0,57.0" stroke-width="1" fill="#191919" stroke-linecap="round" stroke="#191919"/></g><g transform="translate(1058.28,2071.50)" id="shape73"><path d="M.0,.0L.0,35.0L262.7,35.0C262.7,31.6,265.5,28.8,269.0,28.8C272.4,28.8,275.2,31.6,275.2,35.0L368.0,35.0L368.0,57.0" stroke-width="1" fill="none" stroke="#191919"/><path d="M371.0,57.0L368.0,63.0L365.0,57.0L371.0,57.0" stroke-width="1" fill="#191919" stroke-linecap="round" stroke="#191919"/></g><g transform="translate(277.49,2330.00)" id="shape74"><path d="M164.5,63.0L164.5,7.0C164.5,3.1,161.4,.0,157.5,.0L7.0,.0C3.1,.0,.0,3.1,.0,7.0L.0,63.0C.0,66.9,3.1,70.0,7.0,70.0L157.5,70.0C161.4,70.0,164.5,66.9,164.5,63.0z" stroke-width="1" fill="#ffffff" fill-rule="nonzero" stroke="#323232"/><text xml:space="preserve" style="fill:#191919;font-family:Microsoft YaHei;font-size:10.00pt"><tspan y="32.0" x="69.1">Skip</tspan><tspan y="50.0" x="61.5">tokens</tspan></text></g><g transform="translate(309.50,2462.00)" id="shape75"><path d="M100.0,63.0L100.0,7.0C100.0,3.1,96.9,.0,93.0,.0L7.0,.0C3.1,.0,.0,3.1,.0,7.0L.0,63.0C.0,66.9,3.1,70.0,7.0,70.0L93.0,70.0C96.9,70.0,100.0,66.9,100.0,63.0z" stroke-width="1" fill="#ffffff" fill-rule="nonzero" stroke="#323232"/><text xml:space="preserve" style="fill:#191919;font-family:Microsoft YaHei;font-size:10.00pt"><tspan y="41.0" x="30.5">“（”</tspan></text></g><g transform="translate(359.75,2400.00)" id="shape76"><path d="M.0,.0L.0,56.0" stroke-width="1" fill="none" stroke="#191919"/><path d="M3.0,56.0L.0,62.0L-3.0,56.0L3.0,56.0" stroke-width="1" fill="#191919" stroke-linecap="round" stroke="#191919"/></g><g transform="translate(552.00,2204.00)" id="shape77"><path d="M.0,.0L.0,98.0L-193.0,98.0L-193.0,120.0" stroke-width="1" fill="none" stroke="#191919"/><path d="M-190.0,120.0L-193.0,126.0L-196.0,120.0L-190.0,120.0" stroke-width="1" fill="#191919" stroke-linecap="round" stroke="#191919"/></g><g transform="translate(471.11,2330.00)" id="shape78"><path d="M164.5,63.0L164.5,7.0C164.5,3.1,161.4,.0,157.5,.0L7.0,.0C3.1,.0,.0,3.1,.0,7.0L.0,63.0C.0,66.9,3.1,70.0,7.0,70.0L157.5,70.0C161.4,70.0,164.5,66.9,164.5,63.0z" stroke-width="1" fill="#ffffff" fill-rule="nonzero" stroke="#323232"/><text xml:space="preserve" style="fill:#191919;font-family:Microsoft YaHei;font-size:10.00pt"><tspan y="32.0" x="68.7">Tree</tspan><tspan y="50.0" x="62.9">parser</tspan></text></g><g transform="translate(657.99,2330.00)" id="shape79"><path d="M164.5,63.0L164.5,7.0C164.5,3.1,161.4,.0,157.5,.0L7.0,.0C3.1,.0,.0,3.1,.0,7.0L.0,63.0C.0,66.9,3.1,70.0,7.0,70.0L157.5,70.0C161.4,70.0,164.5,66.9,164.5,63.0z" stroke-width="1" fill="#ffffff" fill-rule="nonzero" stroke="#323232"/><text xml:space="preserve" style="fill:#191919;font-family:Microsoft YaHei;font-size:10.00pt"><tspan y="32.0" x="69.1">Skip</tspan><tspan y="50.0" x="61.5">tokens</tspan></text></g><g transform="translate(690.00,2462.00)" id="shape80"><path d="M100.0,63.0L100.0,7.0C100.0,3.1,96.9,.0,93.0,.0L7.0,.0C3.1,.0,.0,3.1,.0,7.0L.0,63.0C.0,66.9,3.1,70.0,7.0,70.0L93.0,70.0C96.9,70.0,100.0,66.9,100.0,63.0z" stroke-width="1" fill="#ffffff" fill-rule="nonzero" stroke="#323232"/><text xml:space="preserve" style="fill:#191919;font-family:Microsoft YaHei;font-size:10.00pt"><tspan y="41.0" x="30.5">“）”</tspan></text></g><g transform="translate(740.25,2400.00)" id="shape81"><path d="M.0,.0L.0,56.0" stroke-width="1" fill="none" stroke="#191919"/><path d="M3.0,56.0L.0,62.0L-3.0,56.0L3.0,56.0" stroke-width="1" fill="#191919" stroke-linecap="round" stroke="#191919"/></g><g transform="translate(552.00,2204.00)" id="shape82"><path d="M.0,.0L.0,120.0" stroke-width="1" fill="none" stroke="#191919"/><path d="M3.0,120.0L.0,126.0L-3.0,120.0L3.0,120.0" stroke-width="1" fill="#191919" stroke-linecap="round" stroke="#191919"/></g><g transform="translate(552.00,2204.00)" id="shape83"><path d="M.0,.0L.0,98.0L187.0,98.0L187.0,120.0" stroke-width="1" fill="none" stroke="#191919"/><path d="M190.0,120.0L187.0,126.0L184.0,120.0L190.0,120.0" stroke-width="1" fill="#191919" stroke-linecap="round" stroke="#191919"/></g><g transform="translate(553.37,2400.00)" id="shape84"><path d="M.0,.0L.0,38.0L-187.6,38.0C-187.6,34.7,-190.3,32.0,-193.6,32.0C-196.9,32.0,-199.6,34.7,-199.6,38.0L-289.3,38.0L-289.3,-1290.5L510.6,-1290.5" stroke-width="1" fill="none" stroke="#191919"/><path d="M510.6,-1293.5L516.6,-1290.5L510.6,-1287.5L510.6,-1293.5" stroke-width="1" fill="#191919" stroke-linecap="round" stroke="#191919"/></g><g transform="translate(895.00,2330.00)" id="shape85"><path d="M208.0,63.0L208.0,7.0C208.0,3.1,204.9,.0,201.0,.0L7.0,.0C3.1,.0,.0,3.1,.0,7.0L.0,63.0C.0,66.9,3.1,70.0,7.0,70.0L201.0,70.0C204.9,70.0,208.0,66.9,208.0,63.0z" stroke-width="1" fill="#ffffff" fill-rule="nonzero" stroke="#323232"/><text xml:space="preserve" style="fill:#191919;font-family:Microsoft YaHei;font-size:10.00pt"><tspan y="41.0" x="4.5">NumToken(NumberLiteral.class)</tspan></text></g><g transform="translate(999.40,2205.00)" id="shape86"><path d="M.0,.0L.0,119.0" stroke-width="1" fill="none" stroke="#191919"/><path d="M3.0,119.0L.0,125.0L-3.0,119.0L3.0,119.0" stroke-width="1" fill="#191919" stroke-linecap="round" stroke="#191919"/></g><g transform="translate(1127.00,2330.00)" id="shape87"><path d="M172.0,63.0L172.0,7.0C172.0,3.1,168.9,.0,165.0,.0L7.0,.0C3.1,.0,.0,3.1,.0,7.0L.0,63.0C.0,66.9,3.1,70.0,7.0,70.0L165.0,70.0C168.9,70.0,172.0,66.9,172.0,63.0z" stroke-width="1" fill="#ffffff" fill-rule="nonzero" stroke="#323232"/><text xml:space="preserve" style="fill:#191919;font-family:Microsoft YaHei;font-size:10.00pt"><tspan y="32.0" x="22.4">IdToken(Name.class, </tspan><tspan y="50.0" x="57.3">reserved)</tspan></text></g><g transform="translate(1213.00,2204.00)" id="shape88"><path d="M.0,.0L.0,120.0" stroke-width="1" fill="none" stroke="#191919"/><path d="M3.0,120.0L.0,126.0L-3.0,120.0L3.0,120.0" stroke-width="1" fill="#191919" stroke-linecap="round" stroke="#191919"/></g><g transform="translate(1331.60,2330.00)" id="shape89"><path d="M190.0,63.0L190.0,7.0C190.0,3.1,186.9,.0,183.0,.0L7.0,.0C3.1,.0,.0,3.1,.0,7.0L.0,63.0C.0,66.9,3.1,70.0,7.0,70.0L183.0,70.0C186.9,70.0,190.0,66.9,190.0,63.0z" stroke-width="1" fill="#ffffff" fill-rule="nonzero" stroke="#323232"/><text xml:space="preserve" style="fill:#191919;font-family:Microsoft YaHei;font-size:10.00pt"><tspan y="41.0" x="9.3">StrToken(StringLiteral.class)</tspan></text></g><g transform="translate(1426.60,2204.00)" id="shape90"><path d="M.0,.0L.0,120.0" stroke-width="1" fill="none" stroke="#191919"/><path d="M3.0,120.0L.0,126.0L-3.0,120.0L3.0,120.0" stroke-width="1" fill="#191919" stroke-linecap="round" stroke="#191919"/></g><g transform="translate(1246.00,1355.00)" id="shape91"><path d="M100.0,63.0L100.0,7.0C100.0,3.1,96.9,.0,93.0,.0L7.0,.0C3.1,.0,.0,3.1,.0,7.0L.0,63.0C.0,66.9,3.1,70.0,7.0,70.0L93.0,70.0C96.9,70.0,100.0,66.9,100.0,63.0z" stroke-width="1" fill="#ffffff" fill-rule="nonzero" stroke="#323232"/><text xml:space="preserve" style="fill:#191919;font-family:Microsoft YaHei;font-size:10.00pt"><tspan y="32.0" x="5.8">+ - * / = == > </tspan><tspan y="50.0" x="37.5">&lt; %</tspan></text></g><g transform="translate(1119.53,1298.00)" id="shape92"><path d="M.0,.0L.0,28.0L87.5,28.0C87.5,24.6,90.3,21.8,93.7,21.8C97.2,21.8,100.0,24.6,100.0,28.0L177.0,28.0L177.0,51.0" stroke-width="1" fill="none" stroke="#191919"/><path d="M180.0,51.0L177.0,57.0L174.0,51.0L180.0,51.0" stroke-width="1" fill="#191919" stroke-linecap="round" stroke="#191919"/></g><g transform="translate(1266.02,1697.50)" id="shape93"><path d="M.0,.0L.0,217.0L-111.0,217.0" stroke-width="1" fill="none" stroke="#191919"/><path d="M-111.0,220.0L-117.0,217.0L-111.0,214.0L-111.0,220.0" stroke-width="1" fill="#191919" stroke-linecap="round" stroke="#191919"/></g><g transform="translate(2490.81,1460.25)" id="shape94"><path d="M.0,.0L41.2,.0L41.2,-416.3L-221.5,-416.3C-221.5,-419.6,-224.2,-422.3,-227.5,-422.3C-230.8,-422.3,-233.5,-419.6,-233.5,-416.3L-389.2,-416.3L-389.2,-315.5L-444.5,-315.5C-444.5,-318.8,-447.2,-321.5,-450.5,-321.5C-453.9,-321.5,-456.5,-318.8,-456.5,-315.5L-762.1,-315.5" stroke-width="1" fill="none" stroke="#191919"/><path d="M-762.1,-312.5L-768.1,-315.5L-762.1,-318.5L-762.1,-312.5" stroke-width="1" fill="#191919" stroke-linecap="round" stroke="#191919"/></g><g transform="translate(1370.97,1301.00)" id="shape95"><path d="M164.5,63.0L164.5,7.0C164.5,3.1,161.4,.0,157.5,.0L7.0,.0C3.1,.0,.0,3.1,.0,7.0L.0,63.0C.0,66.9,3.1,70.0,7.0,70.0L157.5,70.0C161.4,70.0,164.5,66.9,164.5,63.0z" stroke-width="1" fill="#ffffff" fill-rule="nonzero" stroke="#323232"/><text xml:space="preserve" style="fill:#191919;font-family:Microsoft YaHei;font-size:10.00pt"><tspan y="32.0" x="69.1">Skip</tspan><tspan y="50.0" x="61.5">tokens</tspan></text></g><g transform="translate(1402.98,1433.00)" id="shape96"><path d="M100.0,63.0L100.0,7.0C100.0,3.1,96.9,.0,93.0,.0L7.0,.0C3.1,.0,.0,3.1,.0,7.0L.0,63.0C.0,66.9,3.1,70.0,7.0,70.0L93.0,70.0C96.9,70.0,100.0,66.9,100.0,63.0z" stroke-width="1" fill="#ffffff" fill-rule="nonzero" stroke="#323232"/><text xml:space="preserve" style="fill:#191919;font-family:Microsoft YaHei;font-size:10.00pt"><tspan y="41.0" x="34.8">“{”</tspan></text></g><g transform="translate(1453.23,1371.00)" id="shape97"><path d="M.0,.0L.0,56.0" stroke-width="1" fill="none" stroke="#191919"/><path d="M3.0,56.0L.0,62.0L-3.0,56.0L3.0,56.0" stroke-width="1" fill="#191919" stroke-linecap="round" stroke="#191919"/></g><g transform="translate(1743.49,1301.00)" id="shape98"><path d="M164.5,63.0L164.5,7.0C164.5,3.1,161.4,.0,157.5,.0L7.0,.0C3.1,.0,.0,3.1,.0,7.0L.0,63.0C.0,66.9,3.1,70.0,7.0,70.0L157.5,70.0C161.4,70.0,164.5,66.9,164.5,63.0z" stroke-width="1" fill="#ffffff" fill-rule="nonzero" stroke="#323232"/><text xml:space="preserve" style="fill:#191919;font-family:Microsoft YaHei;font-size:10.00pt"><tspan y="32.0" x="69.1">Skip</tspan><tspan y="50.0" x="61.5">tokens</tspan></text></g><g transform="translate(1775.75,1433.00)" id="shape99"><path d="M100.0,63.0L100.0,7.0C100.0,3.1,96.9,.0,93.0,.0L7.0,.0C3.1,.0,.0,3.1,.0,7.0L.0,63.0C.0,66.9,3.1,70.0,7.0,70.0L93.0,70.0C96.9,70.0,100.0,66.9,100.0,63.0z" stroke-width="1" fill="#ffffff" fill-rule="nonzero" stroke="#323232"/><text xml:space="preserve" style="fill:#191919;font-family:Microsoft YaHei;font-size:10.00pt"><tspan y="41.0" x="34.8">“}”</tspan></text></g><g transform="translate(1825.75,1371.00)" id="shape100"><path d="M.0,.0L.0,56.0" stroke-width="1" fill="none" stroke="#191919"/><path d="M3.0,56.0L.0,62.0L-3.0,56.0L3.0,56.0" stroke-width="1" fill="#191919" stroke-linecap="round" stroke="#191919"/></g><g transform="translate(1557.23,1301.00)" id="shape101"><path d="M164.5,63.0L164.5,7.0C164.5,3.1,161.4,.0,157.5,.0L7.0,.0C3.1,.0,.0,3.1,.0,7.0L.0,63.0C.0,66.9,3.1,70.0,7.0,70.0L157.5,70.0C161.4,70.0,164.5,66.9,164.5,63.0z" stroke-width="1" fill="#ffffff" fill-rule="nonzero" stroke="#323232"/><text xml:space="preserve" style="fill:#191919;font-family:Microsoft YaHei;font-size:10.00pt"><tspan y="32.0" x="60.5">Repeat</tspan><tspan y="50.0" x="62.9">parser</tspan></text></g><g transform="translate(1589.49,1433.00)" id="shape102"><path d="M100.0,63.0L100.0,7.0C100.0,3.1,96.9,.0,93.0,.0L7.0,.0C3.1,.0,.0,3.1,.0,7.0L.0,63.0C.0,66.9,3.1,70.0,7.0,70.0L93.0,70.0C96.9,70.0,100.0,66.9,100.0,63.0z" stroke-width="1" fill="#ffffff" fill-rule="nonzero" stroke="#323232"/><text xml:space="preserve" style="fill:#191919;font-family:Microsoft YaHei;font-size:10.00pt"><tspan y="32.0" x="30.8">Parser</tspan><tspan y="50.0" x="17.4">elements[]</tspan></text></g><g transform="translate(1639.49,1371.00)" id="shape103"><path d="M.0,.0L.0,56.0" stroke-width="1" fill="none" stroke="#191919"/><path d="M3.0,56.0L.0,62.0L-3.0,56.0L3.0,56.0" stroke-width="1" fill="#191919" stroke-linecap="round" stroke="#191919"/></g><g transform="translate(1467.74,1547.00)" id="shape104"><path d="M164.5,63.0L164.5,7.0C164.5,3.1,161.4,.0,157.5,.0L7.0,.0C3.1,.0,.0,3.1,.0,7.0L.0,63.0C.0,66.9,3.1,70.0,7.0,70.0L157.5,70.0C161.4,70.0,164.5,66.9,164.5,63.0z" stroke-width="1" fill="#ffffff" fill-rule="nonzero" stroke="#323232"/><text xml:space="preserve" style="fill:#191919;font-family:Microsoft YaHei;font-size:10.00pt"><tspan y="32.0" x="69.1">Skip</tspan><tspan y="50.0" x="61.5">tokens</tspan></text></g><g transform="translate(1441.24,1679.00)" id="shape105"><path d="M100.0,63.0L100.0,7.0C100.0,3.1,96.9,.0,93.0,.0L7.0,.0C3.1,.0,.0,3.1,.0,7.0L.0,63.0C.0,66.9,3.1,70.0,7.0,70.0L93.0,70.0C96.9,70.0,100.0,66.9,100.0,63.0z" stroke-width="1" fill="#ffffff" fill-rule="nonzero" stroke="#323232"/><text xml:space="preserve" style="fill:#191919;font-family:Microsoft YaHei;font-size:10.00pt"><tspan y="41.0" x="35.4">“;”</tspan></text></g><g transform="translate(1550.00,1617.00)" id="shape106"><path d="M.0,.0L.0,34.0L-58.0,34.0L-58.0,56.0" stroke-width="1" fill="none" stroke="#191919"/><path d="M-55.0,56.0L-58.0,62.0L-61.0,56.0L-55.0,56.0" stroke-width="1" fill="#191919" stroke-linecap="round" stroke="#191919"/></g><g transform="translate(1558.76,1679.00)" id="shape107"><path d="M100.0,63.0L100.0,7.0C100.0,3.1,96.9,.0,93.0,.0L7.0,.0C3.1,.0,.0,3.1,.0,7.0L.0,63.0C.0,66.9,3.1,70.0,7.0,70.0L93.0,70.0C96.9,70.0,100.0,66.9,100.0,63.0z" stroke-width="1" fill="#ffffff" fill-rule="nonzero" stroke="#323232"/><text xml:space="preserve" style="fill:#191919;font-family:Microsoft YaHei;font-size:10.00pt"><tspan y="41.0" x="24.8">“EOL”</tspan></text></g><g transform="translate(1550.00,1617.00)" id="shape108"><path d="M.0,.0L.0,34.0L59.0,34.0L59.0,56.0" stroke-width="1" fill="none" stroke="#191919"/><path d="M62.0,56.0L59.0,62.0L56.0,56.0L62.0,56.0" stroke-width="1" fill="#191919" stroke-linecap="round" stroke="#191919"/></g><g transform="translate(1639.49,1503.00)" id="shape109"><path d="M.0,.0L.0,28.0L-90.0,28.0L-90.0,38.0" stroke-width="1" fill="none" stroke="#191919"/><path d="M-87.0,38.0L-90.0,44.0L-93.0,38.0L-87.0,38.0" stroke-width="1" fill="#191919" stroke-linecap="round" stroke="#191919"/></g><g transform="translate(1674.74,1547.00)" id="shape110"><path d="M164.5,63.0L164.5,7.0C164.5,3.1,161.4,.0,157.5,.0L7.0,.0C3.1,.0,.0,3.1,.0,7.0L.0,63.0C.0,66.9,3.1,70.0,7.0,70.0L157.5,70.0C161.4,70.0,164.5,66.9,164.5,63.0z" stroke-width="1" fill="#ffffff" fill-rule="nonzero" stroke="#323232"/><text xml:space="preserve" style="fill:#191919;font-family:Microsoft YaHei;font-size:10.00pt"><tspan y="32.0" x="60.5">Repeat</tspan><tspan y="50.0" x="62.9">parser</tspan></text></g><g transform="translate(1639.49,1503.00)" id="shape111"><path d="M.0,.0L.0,28.0L117.0,28.0L117.0,38.0" stroke-width="1" fill="none" stroke="#191919"/><path d="M120.0,38.0L117.0,44.0L114.0,38.0L120.0,38.0" stroke-width="1" fill="#191919" stroke-linecap="round" stroke="#191919"/></g><g transform="translate(1839.26,1582.00)" id="shape112"><path d="M.0,.0L201.0,.0L201.0,-1023.0L538.8,-1023.0" stroke-width="1" fill="none" stroke="#191919"/><path d="M538.8,-1026.0L544.8,-1023.0L538.8,-1020.0L538.8,-1026.0" stroke-width="1" fill="#191919" stroke-linecap="round" stroke="#191919"/></g><g transform="translate(2594.48,919.00)" id="shape113"><path d="M164.5,63.0L164.5,7.0C164.5,3.1,161.4,.0,157.5,.0L7.0,.0C3.1,.0,.0,3.1,.0,7.0L.0,63.0C.0,66.9,3.1,70.0,7.0,70.0L157.5,70.0C161.4,70.0,164.5,66.9,164.5,63.0z" stroke-width="1" fill="#ffffff" fill-rule="nonzero" stroke="#323232"/><text xml:space="preserve" style="fill:#191919;font-family:Microsoft YaHei;font-size:10.00pt"><tspan y="32.0" x="69.1">Skip</tspan><tspan y="50.0" x="61.5">tokens</tspan></text></g><g transform="translate(2625.49,1051.00)" id="shape114"><path d="M100.0,63.0L100.0,7.0C100.0,3.1,96.9,.0,93.0,.0L7.0,.0C3.1,.0,.0,3.1,.0,7.0L.0,63.0C.0,66.9,3.1,70.0,7.0,70.0L93.0,70.0C96.9,70.0,100.0,66.9,100.0,63.0z" stroke-width="1" fill="#ffffff" fill-rule="nonzero" stroke="#323232"/><text xml:space="preserve" style="fill:#191919;font-family:Microsoft YaHei;font-size:10.00pt"><tspan y="41.0" x="20.7">“while”</tspan></text></g><g transform="translate(2676.74,989.00)" id="shape115"><path d="M.0,.0L.0,56.0" stroke-width="1" fill="none" stroke="#191919"/><path d="M3.0,56.0L.0,62.0L-3.0,56.0L3.0,56.0" stroke-width="1" fill="#191919" stroke-linecap="round" stroke="#191919"/></g><g transform="translate(1640.49,1188.75)" id="shape116"><path d="M.0,.0L.0,85.0L-187.0,85.0L-187.0,107.0" stroke-width="1" fill="none" stroke="#191919"/><path d="M-184.0,107.0L-187.0,113.0L-190.0,107.0L-184.0,107.0" stroke-width="1" fill="#191919" stroke-linecap="round" stroke="#191919"/></g><g transform="translate(1640.49,1188.75)" id="shape117"><path d="M.0,.0L.0,107.0" stroke-width="1" fill="none" stroke="#191919"/><path d="M3.0,107.0L.0,113.0L-3.0,107.0L3.0,107.0" stroke-width="1" fill="#191919" stroke-linecap="round" stroke="#191919"/></g><g transform="translate(1640.49,1188.75)" id="shape118"><path d="M.0,.0L.0,85.0L185.0,85.0L185.0,107.0" stroke-width="1" fill="none" stroke="#191919"/><path d="M188.0,107.0L185.0,113.0L182.0,107.0L188.0,107.0" stroke-width="1" fill="#191919" stroke-linecap="round" stroke="#191919"/></g><g transform="translate(2833.02,919.00)" id="shape119"><path d="M164.5,63.0L164.5,7.0C164.5,3.1,161.4,.0,157.5,.0L7.0,.0C3.1,.0,.0,3.1,.0,7.0L.0,63.0C.0,66.9,3.1,70.0,7.0,70.0L157.5,70.0C161.4,70.0,164.5,66.9,164.5,63.0z" stroke-width="1" fill="#ffffff" fill-rule="nonzero" stroke="#323232"/><text xml:space="preserve" style="fill:#191919;font-family:Microsoft YaHei;font-size:10.00pt"><tspan y="32.0" x="68.7">Tree</tspan><tspan y="50.0" x="62.9">parser</tspan></text></g><g transform="translate(3071.56,919.00)" id="shape120"><path d="M164.5,63.0L164.5,7.0C164.5,3.1,161.4,.0,157.5,.0L7.0,.0C3.1,.0,.0,3.1,.0,7.0L.0,63.0C.0,66.9,3.1,70.0,7.0,70.0L157.5,70.0C161.4,70.0,164.5,66.9,164.5,63.0z" stroke-width="1" fill="#ffffff" fill-rule="nonzero" stroke="#323232"/><text xml:space="preserve" style="fill:#191919;font-family:Microsoft YaHei;font-size:10.00pt"><tspan y="32.0" x="68.7">Tree</tspan><tspan y="50.0" x="62.9">parser</tspan></text></g><g transform="translate(2915.00,827.00)" id="shape121"><path d="M.0,.0L.0,64.0L-239.0,64.0L-239.0,86.0" stroke-width="1" fill="none" stroke="#191919"/><path d="M-236.0,86.0L-239.0,92.0L-242.0,86.0L-236.0,86.0" stroke-width="1" fill="#191919" stroke-linecap="round" stroke="#191919"/></g><g transform="translate(2915.00,827.00)" id="shape122"><path d="M.0,.0L.0,86.0" stroke-width="1" fill="none" stroke="#191919"/><path d="M3.0,86.0L.0,92.0L-3.0,86.0L3.0,86.0" stroke-width="1" fill="#191919" stroke-linecap="round" stroke="#191919"/></g><g transform="translate(2915.00,827.00)" id="shape123"><path d="M.0,.0L.0,64.0L238.0,64.0L238.0,86.0" stroke-width="1" fill="none" stroke="#191919"/><path d="M241.0,86.0L238.0,92.0L235.0,86.0L241.0,86.0" stroke-width="1" fill="#191919" stroke-linecap="round" stroke="#191919"/></g><g transform="translate(2915.28,989.00)" id="shape124"><path d="M.0,.0L.0,41.0L-232.5,41.0C-232.5,37.7,-235.2,35.0,-238.5,35.0C-241.9,35.0,-244.5,37.7,-244.5,41.0L-646.0,41.0C-646.0,37.7,-648.7,35.0,-652.0,35.0C-655.3,35.0,-658.0,37.7,-658.0,41.0L-869.0,41.0C-869.0,37.7,-871.7,35.0,-875.0,35.0C-878.3,35.0,-881.0,37.7,-881.0,41.0L-1268.3,41.0C-1268.3,37.7,-1271.0,35.0,-1274.3,35.0C-1277.6,35.0,-1280.3,37.7,-1280.3,41.0L-1717.0,41.0L-1717.0,120.5L-1739.3,120.5" stroke-width="1" fill="none" stroke="#191919"/><path d="M-1739.3,123.5L-1745.3,120.5L-1739.3,117.5L-1739.3,123.5" stroke-width="1" fill="#191919" stroke-linecap="round" stroke="#191919"/></g><g transform="translate(3153.82,989.00)" id="shape125"><path d="M.0,.0L.0,155.0L-615.8,155.0C-615.8,151.7,-618.5,149.0,-621.8,149.0C-625.1,149.0,-627.8,151.7,-627.8,155.0L-884.5,155.0C-884.5,151.7,-887.2,149.0,-890.5,149.0C-893.8,149.0,-896.5,151.7,-896.5,155.0L-1046.2,155.0C-1046.2,151.7,-1048.9,149.0,-1052.2,149.0C-1055.5,149.0,-1058.2,151.7,-1058.2,155.0L-1107.6,155.0C-1107.6,151.7,-1110.2,149.0,-1113.6,149.0C-1116.9,149.0,-1119.6,151.7,-1119.6,155.0L-1425.0,155.0" stroke-width="1" fill="none" stroke="#191919"/><path d="M-1425.0,158.0L-1431.0,155.0L-1425.0,152.0L-1425.0,158.0" stroke-width="1" fill="#191919" stroke-linecap="round" stroke="#191919"/></g><g transform="translate(3409.24,919.00)" id="shape126"><path d="M164.5,63.0L164.5,7.0C164.5,3.1,161.4,.0,157.5,.0L7.0,.0C3.1,.0,.0,3.1,.0,7.0L.0,63.0C.0,66.9,3.1,70.0,7.0,70.0L157.5,70.0C161.4,70.0,164.5,66.9,164.5,63.0z" stroke-width="1" fill="#ffffff" fill-rule="nonzero" stroke="#323232"/><text xml:space="preserve" style="fill:#191919;font-family:Microsoft YaHei;font-size:10.00pt"><tspan y="32.0" x="68.7">Tree</tspan><tspan y="50.0" x="62.9">parser</tspan></text></g><g transform="translate(3491.50,827.00)" id="shape127"><path d="M.0,.0L.0,86.0" stroke-width="1" fill="none" stroke="#191919"/><path d="M3.0,86.0L.0,92.0L-3.0,86.0L3.0,86.0" stroke-width="1" fill="#191919" stroke-linecap="round" stroke="#191919"/></g><g transform="translate(3491.00,989.00)" id="shape128"><path d="M.0,.0L.0,28.0L-331.2,28.0C-331.2,24.7,-333.9,22.0,-337.2,22.0C-340.5,22.0,-343.2,24.7,-343.2,28.0L-569.7,28.0C-569.7,24.7,-572.4,22.0,-575.7,22.0C-579.0,22.0,-581.7,24.7,-581.7,28.0L-808.3,28.0C-808.3,24.7,-810.9,22.0,-814.3,22.0C-817.6,22.0,-820.3,24.7,-820.3,28.0L-1221.7,28.0C-1221.7,24.7,-1224.4,22.0,-1227.7,22.0C-1231.0,22.0,-1233.7,24.7,-1233.7,28.0L-1444.7,28.0C-1444.7,24.7,-1447.4,22.0,-1450.7,22.0C-1454.1,22.0,-1456.7,24.7,-1456.7,28.0L-1844.0,28.0C-1844.0,24.7,-1846.7,22.0,-1850.0,22.0C-1853.3,22.0,-1856.0,24.7,-1856.0,28.0L-2293.0,28.0L-2293.0,120.0L-2315.0,120.0" stroke-width="1" fill="none" stroke="#191919"/><path d="M-2315.0,123.0L-2321.0,120.0L-2315.0,117.0L-2315.0,123.0" stroke-width="1" fill="#191919" stroke-linecap="round" stroke="#191919"/></g><g transform="translate(3085.78,1425.25)" id="shape129"><path d="M178.4,79.0L178.4,7.0C178.4,3.1,175.3,.0,171.4,.0L7.0,.0C3.1,.0,.0,3.1,.0,7.0L.0,79.0C.0,82.9,3.1,86.0,7.0,86.0L171.4,86.0C175.3,86.0,178.4,82.9,178.4,79.0z" stroke-width="1" fill="#ffffff" fill-rule="nonzero" stroke="#323232"/><text xml:space="preserve" style="fill:#191919;font-family:Microsoft YaHei UI;font-size:9.00pt"><tspan y="30.0" x="79.9">def</tspan><tspan y="48.0" style="font-family:Microsoft YaHei;font-size:10.00pt" x="36.1">Parser(DefStmnt)</tspan><tspan y="66.0" style="font-family:Microsoft YaHei;font-size:10.00pt" x="56.6">elements[]</tspan></text></g><g transform="translate(2771.74,1574.00)" id="shape130"><path d="M164.5,63.0L164.5,7.0C164.5,3.1,161.4,.0,157.5,.0L7.0,.0C3.1,.0,.0,3.1,.0,7.0L.0,63.0C.0,66.9,3.1,70.0,7.0,70.0L157.5,70.0C161.4,70.0,164.5,66.9,164.5,63.0z" stroke-width="1" fill="#ffffff" fill-rule="nonzero" stroke="#323232"/><text xml:space="preserve" style="fill:#191919;font-family:Microsoft YaHei;font-size:10.00pt"><tspan y="32.0" x="69.1">Skip</tspan><tspan y="50.0" x="61.5">tokens</tspan></text></g><g transform="translate(2803.75,1706.00)" id="shape131"><path d="M100.0,63.0L100.0,7.0C100.0,3.1,96.9,.0,93.0,.0L7.0,.0C3.1,.0,.0,3.1,.0,7.0L.0,63.0C.0,66.9,3.1,70.0,7.0,70.0L93.0,70.0C96.9,70.0,100.0,66.9,100.0,63.0z" stroke-width="1" fill="#ffffff" fill-rule="nonzero" stroke="#323232"/><text xml:space="preserve" style="fill:#191919;font-family:Microsoft YaHei;font-size:10.00pt"><tspan y="41.0" x="26.9">“def”</tspan></text></g><g transform="translate(2854.00,1644.00)" id="shape132"><path d="M.0,.0L.0,31.0L-0.3,31.0L-0.3,56.0" stroke-width="1" fill="none" stroke="#191919"/><path d="M2.8,56.0L-0.3,62.0L-3.3,56.0L2.8,56.0" stroke-width="1" fill="#191919" stroke-linecap="round" stroke="#191919"/></g><g transform="translate(3213.00,1574.00)" id="shape133"><path d="M164.5,63.0L164.5,7.0C164.5,3.1,161.4,.0,157.5,.0L7.0,.0C3.1,.0,.0,3.1,.0,7.0L.0,63.0C.0,66.9,3.1,70.0,7.0,70.0L157.5,70.0C161.4,70.0,164.5,66.9,164.5,63.0z" stroke-width="1" fill="#ffffff" fill-rule="nonzero" stroke="#323232"/><text xml:space="preserve" style="fill:#191919;font-family:Microsoft YaHei;font-size:10.00pt"><tspan y="32.0" x="68.7">Tree</tspan><tspan y="50.0" x="62.9">parser</tspan></text></g><g transform="translate(3026.78,1574.00)" id="shape134"><path d="M100.0,63.0L100.0,7.0C100.0,3.1,96.9,.0,93.0,.0L7.0,.0C3.1,.0,.0,3.1,.0,7.0L.0,63.0C.0,66.9,3.1,70.0,7.0,70.0L93.0,70.0C96.9,70.0,100.0,66.9,100.0,63.0z" stroke-width="1" fill="#ffffff" fill-rule="nonzero" stroke="#323232"/><text xml:space="preserve" style="fill:#191919;font-family:Microsoft YaHei;font-size:10.00pt"><tspan y="32.0" x="30.8">Parser</tspan><tspan y="50.0" x="17.4">elements[]</tspan></text></g><g transform="translate(2990.00,1706.00)" id="shape135"><path d="M172.0,63.0L172.0,7.0C172.0,3.1,168.9,.0,165.0,.0L7.0,.0C3.1,.0,.0,3.1,.0,7.0L.0,63.0C.0,66.9,3.1,70.0,7.0,70.0L165.0,70.0C168.9,70.0,172.0,66.9,172.0,63.0z" stroke-width="1" fill="#ffffff" fill-rule="nonzero" stroke="#323232"/><text xml:space="preserve" style="fill:#191919;font-family:Microsoft YaHei;font-size:10.00pt"><tspan y="41.0" x="15.0">IdToken(null, reserved)</tspan></text></g><g transform="translate(3076.78,1644.00)" id="shape136"><path d="M.0,.0L.0,56.0" stroke-width="1" fill="none" stroke="#191919"/><path d="M3.0,56.0L.0,62.0L-3.0,56.0L3.0,56.0" stroke-width="1" fill="#191919" stroke-linecap="round" stroke="#191919"/></g><g transform="translate(3229.13,1706.00)" id="shape137"><path d="M132.3,63.0L132.3,7.0C132.3,3.1,129.1,.0,125.3,.0L7.0,.0C3.1,.0,.0,3.1,.0,7.0L.0,63.0C.0,66.9,3.1,70.0,7.0,70.0L125.3,70.0C129.1,70.0,132.3,66.9,132.3,63.0z" stroke-width="1" fill="#ffffff" fill-rule="nonzero" stroke="#323232"/><text xml:space="preserve" style="fill:#191919;font-family:Microsoft YaHei;font-size:10.00pt"><tspan y="23.0" x="35.8">paramList</tspan><tspan y="41.0" x="46.9">Parser</tspan><tspan y="59.0" x="33.5">elements[]</tspan></text></g><g transform="translate(3451.74,1574.00)" id="shape138"><path d="M164.5,63.0L164.5,7.0C164.5,3.1,161.4,.0,157.5,.0L7.0,.0C3.1,.0,.0,3.1,.0,7.0L.0,63.0C.0,66.9,3.1,70.0,7.0,70.0L157.5,70.0C161.4,70.0,164.5,66.9,164.5,63.0z" stroke-width="1" fill="#ffffff" fill-rule="nonzero" stroke="#323232"/><text xml:space="preserve" style="fill:#191919;font-family:Microsoft YaHei;font-size:10.00pt"><tspan y="32.0" x="68.7">Tree</tspan><tspan y="50.0" x="62.9">parser</tspan></text></g><g transform="translate(3462.00,1706.00)" id="shape139"><path d="M144.0,63.0L144.0,7.0C144.0,3.1,140.9,.0,137.0,.0L7.0,.0C3.1,.0,.0,3.1,.0,7.0L.0,63.0C.0,66.9,3.1,70.0,7.0,70.0L137.0,70.0C140.9,70.0,144.0,66.9,144.0,63.0z" stroke-width="1" fill="#ffffff" fill-rule="nonzero" stroke="#323232"/><text xml:space="preserve" style="fill:#191919;font-family:Microsoft YaHei;font-size:10.00pt"><tspan y="23.0" x="55.2">block</tspan><tspan y="41.0" x="52.8">Parser</tspan><tspan y="59.0" x="39.4">elements[]</tspan></text></g><g transform="translate(3295.26,1644.00)" id="shape140"><path d="M.0,.0L.0,56.0" stroke-width="1" fill="none" stroke="#191919"/><path d="M3.0,56.0L.0,62.0L-3.0,56.0L3.0,56.0" stroke-width="1" fill="#191919" stroke-linecap="round" stroke="#191919"/></g><g transform="translate(3534.00,1644.00)" id="shape141"><path d="M.0,.0L.0,56.0" stroke-width="1" fill="none" stroke="#191919"/><path d="M3.0,56.0L.0,62.0L-3.0,56.0L3.0,56.0" stroke-width="1" fill="#191919" stroke-linecap="round" stroke="#191919"/></g><g transform="translate(3175.00,1511.00)" id="shape142"><path d="M.0,.0L.0,35.0L-99.0,35.0L-99.0,57.0" stroke-width="1" fill="none" stroke="#191919"/><path d="M-96.0,57.0L-99.0,63.0L-102.0,57.0L-96.0,57.0" stroke-width="1" fill="#191919" stroke-linecap="round" stroke="#191919"/></g><g transform="translate(3175.00,1511.00)" id="shape143"><path d="M.0,.0L.0,35.0L120.0,35.0L120.0,57.0" stroke-width="1" fill="none" stroke="#191919"/><path d="M123.0,57.0L120.0,63.0L117.0,57.0L123.0,57.0" stroke-width="1" fill="#191919" stroke-linecap="round" stroke="#191919"/></g><g transform="translate(3175.00,1511.00)" id="shape144"><path d="M.0,.0L.0,35.0L358.0,35.0L358.0,57.0" stroke-width="1" fill="none" stroke="#191919"/><path d="M361.0,57.0L358.0,63.0L355.0,57.0L361.0,57.0" stroke-width="1" fill="#191919" stroke-linecap="round" stroke="#191919"/></g><g transform="translate(3175.00,1511.00)" id="shape145"><path d="M.0,.0L.0,35.0L-322.0,35.0L-322.0,57.0" stroke-width="1" fill="none" stroke="#191919"/><path d="M-319.0,57.0L-322.0,63.0L-325.0,57.0L-319.0,57.0" stroke-width="1" fill="#191919" stroke-linecap="round" stroke="#191919"/></g><g transform="translate(3016.57,1877.00)" id="shape146"><path d="M164.5,63.0L164.5,7.0C164.5,3.1,161.4,.0,157.5,.0L7.0,.0C3.1,.0,.0,3.1,.0,7.0L.0,63.0C.0,66.9,3.1,70.0,7.0,70.0L157.5,70.0C161.4,70.0,164.5,66.9,164.5,63.0z" stroke-width="1" fill="#ffffff" fill-rule="nonzero" stroke="#323232"/><text xml:space="preserve" style="fill:#191919;font-family:Microsoft YaHei;font-size:10.00pt"><tspan y="32.0" x="69.1">Skip</tspan><tspan y="50.0" x="61.5">tokens</tspan></text></g><g transform="translate(3048.83,2009.00)" id="shape147"><path d="M100.0,63.0L100.0,7.0C100.0,3.1,96.9,.0,93.0,.0L7.0,.0C3.1,.0,.0,3.1,.0,7.0L.0,63.0C.0,66.9,3.1,70.0,7.0,70.0L93.0,70.0C96.9,70.0,100.0,66.9,100.0,63.0z" stroke-width="1" fill="#ffffff" fill-rule="nonzero" stroke="#323232"/><text xml:space="preserve" style="fill:#191919;font-family:Microsoft YaHei;font-size:10.00pt"><tspan y="41.0" x="34.8">“(”</tspan></text></g><g transform="translate(3098.82,1947.00)" id="shape148"><path d="M.0,.0L.0,56.0" stroke-width="1" fill="none" stroke="#191919"/><path d="M3.0,56.0L.0,62.0L-3.0,56.0L3.0,56.0" stroke-width="1" fill="#191919" stroke-linecap="round" stroke="#191919"/></g><g transform="translate(3409.44,1877.00)" id="shape149"><path d="M164.5,63.0L164.5,7.0C164.5,3.1,161.4,.0,157.5,.0L7.0,.0C3.1,.0,.0,3.1,.0,7.0L.0,63.0C.0,66.9,3.1,70.0,7.0,70.0L157.5,70.0C161.4,70.0,164.5,66.9,164.5,63.0z" stroke-width="1" fill="#ffffff" fill-rule="nonzero" stroke="#323232"/><text xml:space="preserve" style="fill:#191919;font-family:Microsoft YaHei;font-size:10.00pt"><tspan y="32.0" x="69.1">Skip</tspan><tspan y="50.0" x="61.5">tokens</tspan></text></g><g transform="translate(3441.44,2009.00)" id="shape150"><path d="M100.0,63.0L100.0,7.0C100.0,3.1,96.9,.0,93.0,.0L7.0,.0C3.1,.0,.0,3.1,.0,7.0L.0,63.0C.0,66.9,3.1,70.0,7.0,70.0L93.0,70.0C96.9,70.0,100.0,66.9,100.0,63.0z" stroke-width="1" fill="#ffffff" fill-rule="nonzero" stroke="#323232"/><text xml:space="preserve" style="fill:#191919;font-family:Microsoft YaHei;font-size:10.00pt"><tspan y="41.0" x="34.8">“)”</tspan></text></g><g transform="translate(3491.69,1947.00)" id="shape151"><path d="M.0,.0L.0,31.0L-0.3,31.0L-0.3,56.0" stroke-width="1" fill="none" stroke="#191919"/><path d="M2.8,56.0L-0.3,62.0L-3.3,56.0L2.8,56.0" stroke-width="1" fill="#191919" stroke-linecap="round" stroke="#191919"/></g><g transform="translate(3245.26,1877.00)" id="shape152"><path d="M100.0,63.0L100.0,7.0C100.0,3.1,96.9,.0,93.0,.0L7.0,.0C3.1,.0,.0,3.1,.0,7.0L.0,63.0C.0,66.9,3.1,70.0,7.0,70.0L93.0,70.0C96.9,70.0,100.0,66.9,100.0,63.0z" stroke-width="1" fill="#ffffff" fill-rule="nonzero" stroke="#323232"/><text xml:space="preserve" style="fill:#191919;font-family:Microsoft YaHei;font-size:10.00pt"><tspan y="32.0" x="28.7">OrTree</tspan><tspan y="50.0" x="23.3">parsers[]</tspan></text></g><g transform="translate(3072.37,2141.00)" id="shape153"><path d="M165.7,79.0L165.7,7.0C165.7,3.1,162.6,.0,158.7,.0L7.0,.0C3.1,.0,.0,3.1,.0,7.0L.0,79.0C.0,82.9,3.1,86.0,7.0,86.0L158.7,86.0C162.6,86.0,165.7,82.9,165.7,79.0z" stroke-width="1" fill="#ffffff" fill-rule="nonzero" stroke="#323232"/><text xml:space="preserve" style="fill:#191919;font-family:Microsoft YaHei UI;font-size:9.00pt"><tspan y="30.0" x="61.7">params</tspan><tspan y="48.0" style="font-family:Microsoft YaHei;font-size:10.00pt" x="16.9">Parser(ParameterList)</tspan><tspan y="66.0" style="font-family:Microsoft YaHei;font-size:10.00pt" x="50.2">elements[]</tspan></text></g><g transform="translate(3295.26,1776.00)" id="shape154"><path d="M.0,.0L.0,95.0" stroke-width="1" fill="none" stroke="#191919"/><path d="M3.0,95.0L.0,101.0L-3.0,95.0L3.0,95.0" stroke-width="1" fill="#191919" stroke-linecap="round" stroke="#191919"/></g><g transform="translate(3295.00,1776.00)" id="shape155"><path d="M.0,.0L.0,73.0L-197.0,73.0L-197.0,95.0" stroke-width="1" fill="none" stroke="#191919"/><path d="M-194.0,95.0L-197.0,101.0L-200.0,95.0L-194.0,95.0" stroke-width="1" fill="#191919" stroke-linecap="round" stroke="#191919"/></g><g transform="translate(3295.00,1776.00)" id="shape156"><path d="M.0,.0L.0,73.0L196.0,73.0L196.0,95.0" stroke-width="1" fill="none" stroke="#191919"/><path d="M199.0,95.0L196.0,101.0L193.0,95.0L199.0,95.0" stroke-width="1" fill="#191919" stroke-linecap="round" stroke="#191919"/></g><g transform="translate(2933.11,2299.00)" id="shape157"><path d="M164.5,63.0L164.5,7.0C164.5,3.1,161.4,.0,157.5,.0L7.0,.0C3.1,.0,.0,3.1,.0,7.0L.0,63.0C.0,66.9,3.1,70.0,7.0,70.0L157.5,70.0C161.4,70.0,164.5,66.9,164.5,63.0z" stroke-width="1" fill="#ffffff" fill-rule="nonzero" stroke="#323232"/><text xml:space="preserve" style="fill:#191919;font-family:Microsoft YaHei;font-size:10.00pt"><tspan y="32.0" x="68.7">Tree</tspan><tspan y="50.0" x="62.9">parser</tspan></text></g><g transform="translate(3171.85,2299.00)" id="shape158"><path d="M164.5,63.0L164.5,7.0C164.5,3.1,161.4,.0,157.5,.0L7.0,.0C3.1,.0,.0,3.1,.0,7.0L.0,63.0C.0,66.9,3.1,70.0,7.0,70.0L157.5,70.0C161.4,70.0,164.5,66.9,164.5,63.0z" stroke-width="1" fill="#ffffff" fill-rule="nonzero" stroke="#323232"/><text xml:space="preserve" style="fill:#191919;font-family:Microsoft YaHei;font-size:10.00pt"><tspan y="32.0" x="60.5">Repeat</tspan><tspan y="50.0" x="62.9">parser</tspan></text></g><g transform="translate(3182.11,2431.00)" id="shape159"><path d="M144.0,63.0L144.0,7.0C144.0,3.1,140.9,.0,137.0,.0L7.0,.0C3.1,.0,.0,3.1,.0,7.0L.0,63.0C.0,66.9,3.1,70.0,7.0,70.0L137.0,70.0C140.9,70.0,144.0,66.9,144.0,63.0z" stroke-width="1" fill="#ffffff" fill-rule="nonzero" stroke="#323232"/><text xml:space="preserve" style="fill:#191919;font-family:Microsoft YaHei;font-size:10.00pt"><tspan y="32.0" x="52.8">Parser</tspan><tspan y="50.0" x="39.4">elements[]</tspan></text></g><g transform="translate(3074.48,2582.00)" id="shape160"><path d="M164.5,63.0L164.5,7.0C164.5,3.1,161.4,.0,157.5,.0L7.0,.0C3.1,.0,.0,3.1,.0,7.0L.0,63.0C.0,66.9,3.1,70.0,7.0,70.0L157.5,70.0C161.4,70.0,164.5,66.9,164.5,63.0z" stroke-width="1" fill="#ffffff" fill-rule="nonzero" stroke="#323232"/><text xml:space="preserve" style="fill:#191919;font-family:Microsoft YaHei;font-size:10.00pt"><tspan y="32.0" x="69.1">Skip</tspan><tspan y="50.0" x="61.5">tokens</tspan></text></g><g transform="translate(3106.75,2714.00)" id="shape161"><path d="M100.0,63.0L100.0,7.0C100.0,3.1,96.9,.0,93.0,.0L7.0,.0C3.1,.0,.0,3.1,.0,7.0L.0,63.0C.0,66.9,3.1,70.0,7.0,70.0L93.0,70.0C96.9,70.0,100.0,66.9,100.0,63.0z" stroke-width="1" fill="#ffffff" fill-rule="nonzero" stroke="#323232"/><text xml:space="preserve" style="fill:#191919;font-family:Microsoft YaHei;font-size:10.00pt"><tspan y="41.0" x="35.4">“,”</tspan></text></g><g transform="translate(3156.74,2652.00)" id="shape162"><path d="M.0,.0L.0,56.0" stroke-width="1" fill="none" stroke="#191919"/><path d="M3.0,56.0L.0,62.0L-3.0,56.0L3.0,56.0" stroke-width="1" fill="#191919" stroke-linecap="round" stroke="#191919"/></g><g transform="translate(3289.74,2582.00)" id="shape163"><path d="M164.5,63.0L164.5,7.0C164.5,3.1,161.4,.0,157.5,.0L7.0,.0C3.1,.0,.0,3.1,.0,7.0L.0,63.0C.0,66.9,3.1,70.0,7.0,70.0L157.5,70.0C161.4,70.0,164.5,66.9,164.5,63.0z" stroke-width="1" fill="#ffffff" fill-rule="nonzero" stroke="#323232"/><text xml:space="preserve" style="fill:#191919;font-family:Microsoft YaHei;font-size:10.00pt"><tspan y="32.0" x="68.7">Tree</tspan><tspan y="50.0" x="62.9">parser</tspan></text></g><g transform="translate(3300.00,2819.00)" id="shape164"><path d="M144.0,63.0L144.0,7.0C144.0,3.1,140.9,.0,137.0,.0L7.0,.0C3.1,.0,.0,3.1,.0,7.0L.0,63.0C.0,66.9,3.1,70.0,7.0,70.0L137.0,70.0C140.9,70.0,144.0,66.9,144.0,63.0z" stroke-width="1" fill="#ffffff" fill-rule="nonzero" stroke="#323232"/><text xml:space="preserve" style="fill:#191919;font-family:Microsoft YaHei;font-size:10.00pt"><tspan y="23.0" x="52.1">param</tspan><tspan y="41.0" x="52.8">Parser</tspan><tspan y="59.0" x="39.4">elements[]</tspan></text></g><g transform="translate(3372.00,2652.00)" id="shape165"><path d="M.0,.0L.0,161.0" stroke-width="1" fill="none" stroke="#191919"/><path d="M3.0,161.0L.0,167.0L-3.0,161.0L3.0,161.0" stroke-width="1" fill="#191919" stroke-linecap="round" stroke="#191919"/></g><g transform="translate(3155.24,2227.00)" id="shape166"><path d="M.0,.0L.0,44.0L-140.0,44.0L-140.0,66.0" stroke-width="1" fill="none" stroke="#191919"/><path d="M-137.0,66.0L-140.0,72.0L-143.0,66.0L-137.0,66.0" stroke-width="1" fill="#191919" stroke-linecap="round" stroke="#191919"/></g><g transform="translate(3155.24,2227.00)" id="shape167"><path d="M.0,.0L.0,44.0L98.0,44.0L98.0,66.0" stroke-width="1" fill="none" stroke="#191919"/><path d="M101.0,66.0L98.0,72.0L95.0,66.0L101.0,66.0" stroke-width="1" fill="#191919" stroke-linecap="round" stroke="#191919"/></g><g transform="translate(3254.11,2369.00)" id="shape168"><path d="M.0,.0L.0,56.0" stroke-width="1" fill="none" stroke="#191919"/><path d="M3.0,56.0L.0,62.0L-3.0,56.0L3.0,56.0" stroke-width="1" fill="#191919" stroke-linecap="round" stroke="#191919"/></g><g transform="translate(3254.11,2501.00)" id="shape169"><path d="M.0,.0L.0,53.0L-98.0,53.0L-98.0,75.0" stroke-width="1" fill="none" stroke="#191919"/><path d="M-95.0,75.0L-98.0,81.0L-101.0,75.0L-95.0,75.0" stroke-width="1" fill="#191919" stroke-linecap="round" stroke="#191919"/></g><g transform="translate(3254.11,2501.00)" id="shape170"><path d="M.0,.0L.0,53.0L117.0,53.0L117.0,75.0" stroke-width="1" fill="none" stroke="#191919"/><path d="M120.0,75.0L117.0,81.0L114.0,75.0L120.0,75.0" stroke-width="1" fill="#191919" stroke-linecap="round" stroke="#191919"/></g><g transform="translate(3286.00,2951.00)" id="shape171"><path d="M172.0,63.0L172.0,7.0C172.0,3.1,168.9,.0,165.0,.0L7.0,.0C3.1,.0,.0,3.1,.0,7.0L.0,63.0C.0,66.9,3.1,70.0,7.0,70.0L165.0,70.0C168.9,70.0,172.0,66.9,172.0,63.0z" stroke-width="1" fill="#ffffff" fill-rule="nonzero" stroke="#323232"/><text xml:space="preserve" style="fill:#191919;font-family:Microsoft YaHei;font-size:10.00pt"><tspan y="41.0" x="15.0">IdToken(null, reserved)</tspan></text></g><g transform="translate(3372.00,2889.00)" id="shape172"><path d="M.0,.0L.0,56.0" stroke-width="1" fill="none" stroke="#191919"/><path d="M3.0,56.0L.0,62.0L-3.0,56.0L3.0,56.0" stroke-width="1" fill="#191919" stroke-linecap="round" stroke="#191919"/></g><g transform="translate(3015.37,2369.00)" id="shape173"><path d="M.0,.0L.0,485.0L279.0,485.0" stroke-width="1" fill="none" stroke="#191919"/><path d="M279.0,482.0L285.0,485.0L279.0,488.0L279.0,482.0" stroke-width="1" fill="#191919" stroke-linecap="round" stroke="#191919"/></g><g transform="translate(1884.00,2034.50)" id="shape174"><path d="M100.0,53.0L100.0,7.0C100.0,3.1,96.9,.0,93.0,.0L7.0,.0C3.1,.0,.0,3.1,.0,7.0L.0,53.0C.0,56.9,3.1,60.0,7.0,60.0L93.0,60.0C96.9,60.0,100.0,56.9,100.0,53.0z" stroke-width="1" fill="#ffffff" fill-rule="nonzero" stroke="#323232"/><text xml:space="preserve" style="fill:#191919;font-family:Microsoft YaHei;font-size:10.00pt"><tspan y="27.0" x="28.2">Repeat</tspan><tspan y="45.0" x="23.3">parsers[]</tspan></text></g><g transform="translate(1884.00,2157.00)" id="shape175"><path d="M100.0,63.0L100.0,7.0C100.0,3.1,96.9,.0,93.0,.0L7.0,.0C3.1,.0,.0,3.1,.0,7.0L.0,63.0C.0,66.9,3.1,70.0,7.0,70.0L93.0,70.0C96.9,70.0,100.0,66.9,100.0,63.0z" stroke-width="1" fill="#ffffff" fill-rule="nonzero" stroke="#323232"/><text xml:space="preserve" style="fill:#191919;font-family:Microsoft YaHei UI;font-size:9.00pt"><tspan y="22.0" x="30.6">postfix</tspan><tspan y="40.0" style="font-family:Microsoft YaHei;font-size:10.00pt" x="30.8">Parser</tspan><tspan y="58.0" style="font-family:Microsoft YaHei;font-size:10.00pt" x="17.4">elements[]</tspan></text></g><g transform="translate(1606.29,2311.00)" id="shape176"><path d="M164.5,63.0L164.5,7.0C164.5,3.1,161.4,.0,157.5,.0L7.0,.0C3.1,.0,.0,3.1,.0,7.0L.0,63.0C.0,66.9,3.1,70.0,7.0,70.0L157.5,70.0C161.4,70.0,164.5,66.9,164.5,63.0z" stroke-width="1" fill="#ffffff" fill-rule="nonzero" stroke="#323232"/><text xml:space="preserve" style="fill:#191919;font-family:Microsoft YaHei;font-size:10.00pt"><tspan y="32.0" x="69.1">Skip</tspan><tspan y="50.0" x="61.5">tokens</tspan></text></g><g transform="translate(1638.30,2443.00)" id="shape177"><path d="M100.0,63.0L100.0,7.0C100.0,3.1,96.9,.0,93.0,.0L7.0,.0C3.1,.0,.0,3.1,.0,7.0L.0,63.0C.0,66.9,3.1,70.0,7.0,70.0L93.0,70.0C96.9,70.0,100.0,66.9,100.0,63.0z" stroke-width="1" fill="#ffffff" fill-rule="nonzero" stroke="#323232"/><text xml:space="preserve" style="fill:#191919;font-family:Microsoft YaHei;font-size:10.00pt"><tspan y="41.0" x="30.5">“（”</tspan></text></g><g transform="translate(2241.74,2311.00)" id="shape178"><path d="M164.5,63.0L164.5,7.0C164.5,3.1,161.4,.0,157.5,.0L7.0,.0C3.1,.0,.0,3.1,.0,7.0L.0,63.0C.0,66.9,3.1,70.0,7.0,70.0L157.5,70.0C161.4,70.0,164.5,66.9,164.5,63.0z" stroke-width="1" fill="#ffffff" fill-rule="nonzero" stroke="#323232"/><text xml:space="preserve" style="fill:#191919;font-family:Microsoft YaHei;font-size:10.00pt"><tspan y="32.0" x="69.1">Skip</tspan><tspan y="50.0" x="61.5">tokens</tspan></text></g><g transform="translate(2273.75,2443.00)" id="shape179"><path d="M100.0,63.0L100.0,7.0C100.0,3.1,96.9,.0,93.0,.0L7.0,.0C3.1,.0,.0,3.1,.0,7.0L.0,63.0C.0,66.9,3.1,70.0,7.0,70.0L93.0,70.0C96.9,70.0,100.0,66.9,100.0,63.0z" stroke-width="1" fill="#ffffff" fill-rule="nonzero" stroke="#323232"/><text xml:space="preserve" style="fill:#191919;font-family:Microsoft YaHei;font-size:10.00pt"><tspan y="41.0" x="30.5">“）”</tspan></text></g><g transform="translate(3295.26,1947.00)" id="shape180"><path d="M.0,.0L.0,166.0L-140.0,166.0L-140.0,188.0" stroke-width="1" fill="none" stroke="#191919"/><path d="M-137.0,188.0L-140.0,194.0L-143.0,188.0L-137.0,188.0" stroke-width="1" fill="#191919" stroke-linecap="round" stroke="#191919"/></g><g transform="translate(1884.00,2311.00)" id="shape181"><path d="M100.0,63.0L100.0,7.0C100.0,3.1,96.9,.0,93.0,.0L7.0,.0C3.1,.0,.0,3.1,.0,7.0L.0,63.0C.0,66.9,3.1,70.0,7.0,70.0L93.0,70.0C96.9,70.0,100.0,66.9,100.0,63.0z" stroke-width="1" fill="#ffffff" fill-rule="nonzero" stroke="#323232"/><text xml:space="preserve" style="fill:#191919;font-family:Microsoft YaHei;font-size:10.00pt"><tspan y="32.0" x="28.7">OrTree</tspan><tspan y="50.0" x="23.3">parsers[]</tspan></text></g><g transform="translate(1855.50,2435.00)" id="shape182"><path d="M157.0,79.0L157.0,7.0C157.0,3.1,153.9,.0,150.0,.0L7.0,.0C3.1,.0,.0,3.1,.0,7.0L.0,79.0C.0,82.9,3.1,86.0,7.0,86.0L150.0,86.0C153.9,86.0,157.0,82.9,157.0,79.0z" stroke-width="1" fill="#ffffff" fill-rule="nonzero" stroke="#323232"/><text xml:space="preserve" style="fill:#191919;font-family:Microsoft YaHei UI;font-size:9.00pt"><tspan y="30.0" x="66.3">args</tspan><tspan y="48.0" style="font-family:Microsoft YaHei;font-size:10.00pt" x="20.6">Parser(Arguments)</tspan><tspan y="66.0" style="font-family:Microsoft YaHei;font-size:10.00pt" x="45.9">elements[]</tspan></text></g><g transform="translate(1934.00,2381.00)" id="shape183"><path d="M.0,.0L.0,48.0" stroke-width="1" fill="none" stroke="#191919"/><path d="M3.0,48.0L.0,54.0L-3.0,48.0L3.0,48.0" stroke-width="1" fill="#191919" stroke-linecap="round" stroke="#191919"/></g><g transform="translate(1934.00,2094.00)" id="shape184"><path d="M.0,.0L.0,57.0" stroke-width="1" fill="none" stroke="#191919"/><path d="M3.0,57.0L.0,63.0L-3.0,57.0L3.0,57.0" stroke-width="1" fill="#191919" stroke-linecap="round" stroke="#191919"/></g><g transform="translate(2324.00,2381.00)" id="shape185"><path d="M.0,.0L.0,56.0" stroke-width="1" fill="none" stroke="#191919"/><path d="M3.0,56.0L.0,62.0L-3.0,56.0L3.0,56.0" stroke-width="1" fill="#191919" stroke-linecap="round" stroke="#191919"/></g><g transform="translate(1688.55,2381.00)" id="shape186"><path d="M.0,.0L.0,56.0" stroke-width="1" fill="none" stroke="#191919"/><path d="M3.0,56.0L.0,62.0L-3.0,56.0L3.0,56.0" stroke-width="1" fill="#191919" stroke-linecap="round" stroke="#191919"/></g><g transform="translate(1934.00,2227.00)" id="shape187"><path d="M.0,.0L.0,56.0L-246.0,56.0L-246.0,78.0" stroke-width="1" fill="none" stroke="#191919"/><path d="M-243.0,78.0L-246.0,84.0L-249.0,78.0L-243.0,78.0" stroke-width="1" fill="#191919" stroke-linecap="round" stroke="#191919"/></g><g transform="translate(1934.00,2227.00)" id="shape188"><path d="M.0,.0L.0,78.0" stroke-width="1" fill="none" stroke="#191919"/><path d="M3.0,78.0L.0,84.0L-3.0,78.0L3.0,78.0" stroke-width="1" fill="#191919" stroke-linecap="round" stroke="#191919"/></g><g transform="translate(1934.00,2227.00)" id="shape189"><path d="M.0,.0L.0,56.0L389.0,56.0L389.0,78.0" stroke-width="1" fill="none" stroke="#191919"/><path d="M392.0,78.0L389.0,84.0L386.0,78.0L392.0,78.0" stroke-width="1" fill="#191919" stroke-linecap="round" stroke="#191919"/></g><g transform="translate(1058.00,1958.00)" id="shape190"><path d="M.0,.0L.0,48.0L263.0,48.0C263.0,44.6,265.8,41.8,269.2,41.8C272.7,41.8,275.5,44.6,275.5,48.0L876.0,48.0L876.0,70.0" stroke-width="1" fill="none" stroke="#191919"/><path d="M879.0,70.0L876.0,76.0L873.0,70.0L879.0,70.0" stroke-width="1" fill="#191919" stroke-linecap="round" stroke="#191919"/></g><g transform="translate(1783.37,2611.00)" id="shape191"><path d="M164.5,63.0L164.5,7.0C164.5,3.1,161.4,.0,157.5,.0L7.0,.0C3.1,.0,.0,3.1,.0,7.0L.0,63.0C.0,66.9,3.1,70.0,7.0,70.0L157.5,70.0C161.4,70.0,164.5,66.9,164.5,63.0z" stroke-width="1" fill="#ffffff" fill-rule="nonzero" stroke="#323232"/><text xml:space="preserve" style="fill:#191919;font-family:Microsoft YaHei;font-size:10.00pt"><tspan y="32.0" x="68.7">Tree</tspan><tspan y="50.0" x="62.9">parser</tspan></text></g><g transform="translate(1984.63,2611.00)" id="shape192"><path d="M100.0,63.0L100.0,7.0C100.0,3.1,96.9,.0,93.0,.0L7.0,.0C3.1,.0,.0,3.1,.0,7.0L.0,63.0C.0,66.9,3.1,70.0,7.0,70.0L93.0,70.0C96.9,70.0,100.0,66.9,100.0,63.0z" stroke-width="1" fill="#ffffff" fill-rule="nonzero" stroke="#323232"/><text xml:space="preserve" style="fill:#191919;font-family:Microsoft YaHei;font-size:10.00pt"><tspan y="32.0" x="28.2">Repeat</tspan><tspan y="50.0" x="23.3">parsers[]</tspan></text></g><g transform="translate(1933.48,2759.00)" id="shape193"><path d="M164.5,63.0L164.5,7.0C164.5,3.1,161.4,.0,157.5,.0L7.0,.0C3.1,.0,.0,3.1,.0,7.0L.0,63.0C.0,66.9,3.1,70.0,7.0,70.0L157.5,70.0C161.4,70.0,164.5,66.9,164.5,63.0z" stroke-width="1" fill="#ffffff" fill-rule="nonzero" stroke="#323232"/><text xml:space="preserve" style="fill:#191919;font-family:Microsoft YaHei;font-size:10.00pt"><tspan y="32.0" x="69.1">Skip</tspan><tspan y="50.0" x="61.5">tokens</tspan></text></g><g transform="translate(1965.49,2891.00)" id="shape194"><path d="M100.0,63.0L100.0,7.0C100.0,3.1,96.9,.0,93.0,.0L7.0,.0C3.1,.0,.0,3.1,.0,7.0L.0,63.0C.0,66.9,3.1,70.0,7.0,70.0L93.0,70.0C96.9,70.0,100.0,66.9,100.0,63.0z" stroke-width="1" fill="#ffffff" fill-rule="nonzero" stroke="#323232"/><text xml:space="preserve" style="fill:#191919;font-family:Microsoft YaHei;font-size:10.00pt"><tspan y="41.0" x="35.4">“,”</tspan></text></g><g transform="translate(1934.00,2521.00)" id="shape195"><path d="M.0,.0L.0,62.0L-69.0,62.0L-69.0,84.0" stroke-width="1" fill="none" stroke="#191919"/><path d="M-66.0,84.0L-69.0,90.0L-72.0,84.0L-66.0,84.0" stroke-width="1" fill="#191919" stroke-linecap="round" stroke="#191919"/></g><g transform="translate(1934.00,2521.00)" id="shape196"><path d="M.0,.0L.0,62.0L100.0,62.0L100.0,84.0" stroke-width="1" fill="none" stroke="#191919"/><path d="M103.0,84.0L100.0,90.0L97.0,84.0L103.0,84.0" stroke-width="1" fill="#191919" stroke-linecap="round" stroke="#191919"/></g><g transform="translate(2034.00,2681.00)" id="shape197"><path d="M.0,.0L.0,50.0L-19.0,50.0L-19.0,72.0" stroke-width="1" fill="none" stroke="#191919"/><path d="M-16.0,72.0L-19.0,78.0L-22.0,72.0L-16.0,72.0" stroke-width="1" fill="#191919" stroke-linecap="round" stroke="#191919"/></g><g transform="translate(2015.00,2829.00)" id="shape198"><path d="M.0,.0L.0,56.0" stroke-width="1" fill="none" stroke="#191919"/><path d="M3.0,56.0L.0,62.0L-3.0,56.0L3.0,56.0" stroke-width="1" fill="#191919" stroke-linecap="round" stroke="#191919"/></g><g transform="translate(1783.00,2646.00)" id="shape199"><path d="M.0,.0L-456.0,.0L-456.0,-1195.0L-570.0,-1195.0L-570.0,-1537.0L-578.7,-1537.0C-578.7,-1540.3,-581.4,-1543.0,-584.7,-1543.0C-588.0,-1543.0,-590.7,-1540.3,-590.7,-1537.0L-607.0,-1537.0" stroke-width="1" fill="none" stroke="#191919"/><path d="M-607.0,-1534.0L-613.0,-1537.0L-607.0,-1540.0L-607.0,-1534.0" stroke-width="1" fill="#191919" stroke-linecap="round" stroke="#191919"/></g><g transform="translate(1965.49,2926.00)" id="shape200"><path d="M.0,.0L-638.0,.0L-638.0,-1475.0L-752.0,-1475.0L-752.0,-1817.0L-761.2,-1817.0C-761.2,-1820.3,-763.9,-1823.0,-767.2,-1823.0C-770.5,-1823.0,-773.2,-1820.3,-773.2,-1817.0L-789.0,-1817.0" stroke-width="1" fill="none" stroke="#191919"/><path d="M-789.0,-1814.0L-795.0,-1817.0L-789.0,-1820.0L-789.0,-1814.0" stroke-width="1" fill="#191919" stroke-linecap="round" stroke="#191919"/></g><g transform="translate(3319.13,2141.00)" id="shape201"><path d="M165.7,79.0L165.7,7.0C165.7,3.1,162.6,.0,158.7,.0L7.0,.0C3.1,.0,.0,3.1,.0,7.0L.0,79.0C.0,82.9,3.1,86.0,7.0,86.0L158.7,86.0C162.6,86.0,165.7,82.9,165.7,79.0z" stroke-width="1" fill="#ffffff" fill-rule="nonzero" stroke="#323232"/><text xml:space="preserve" style="fill:#191919;font-family:Microsoft YaHei UI;font-size:9.00pt"><tspan y="30.0" x="61.7">params</tspan><tspan y="48.0" style="font-family:Microsoft YaHei;font-size:10.00pt" x="16.9">Parser(ParameterList)</tspan><tspan y="66.0" style="font-family:Microsoft YaHei;font-size:10.00pt" x="50.2">elements[]</tspan></text></g><g transform="translate(3295.00,1947.00)" id="shape202"><path d="M.0,.0L.0,166.0L106.0,166.0L106.0,188.0" stroke-width="1" fill="none" stroke="#191919"/><path d="M109.0,188.0L106.0,194.0L103.0,188.0L109.0,188.0" stroke-width="1" fill="#191919" stroke-linecap="round" stroke="#191919"/></g><g transform="translate(2064.62,2443.00)" id="shape203"><path d="M157.0,79.0L157.0,7.0C157.0,3.1,153.9,.0,150.0,.0L7.0,.0C3.1,.0,.0,3.1,.0,7.0L.0,79.0C.0,82.9,3.1,86.0,7.0,86.0L150.0,86.0C153.9,86.0,157.0,82.9,157.0,79.0z" stroke-width="1" fill="#ffffff" fill-rule="nonzero" stroke="#323232"/><text xml:space="preserve" style="fill:#191919;font-family:Microsoft YaHei UI;font-size:9.00pt"><tspan y="30.0" x="66.3">args</tspan><tspan y="48.0" style="font-family:Microsoft YaHei;font-size:10.00pt" x="20.6">Parser(Arguments)</tspan><tspan y="66.0" style="font-family:Microsoft YaHei;font-size:10.00pt" x="45.9">elements[]</tspan></text></g><g transform="translate(1934.00,2381.00)" id="shape204"><path d="M.0,.0L.0,34.0L208.0,34.0L208.0,56.0" stroke-width="1" fill="none" stroke="#191919"/><path d="M211.0,56.0L208.0,62.0L205.0,56.0L211.0,56.0" stroke-width="1" fill="#191919" stroke-linecap="round" stroke="#191919"/></g></g></svg>